<?xml version="1.0" encoding="utf-8"?>
<!-- Generator: Adobe Illustrator 18.0.0, SVG Export Plug-In . SVG Version: 6.00 Build 0)  -->
<!DOCTYPE svg PUBLIC "-//W3C//DTD SVG 1.1//EN" "http://www.w3.org/Graphics/SVG/1.1/DTD/svg11.dtd">
<svg version="1.1" id="Layer_1" xmlns="http://www.w3.org/2000/svg" xmlns:xlink="http://www.w3.org/1999/xlink" x="0px" y="0px"
	 viewBox="0 0 437.5 433.6" enable-background="new 0 0 437.5 433.6" xml:space="preserve">
<g>
	<path id="Blue_2_" fill="#656868" d="M407.9,430.2c12.9,0,23.4-10.5,23.4-23.4V28.9c0-12.9-10.5-23.4-23.4-23.4H30.1
		C17.1,5.5,6.6,16,6.6,28.9v377.8c0,12.9,10.5,23.4,23.4,23.4H407.9z"/>
	<path id="f_1_" fill="#303535" d="M299.7,430.2V265.7h55.2l8.3-64.1h-63.5v-40.9c0-18.6,5.2-31.2,31.8-31.2l33.9,0V72.1
		c-5.9-0.8-26-2.5-49.5-2.5c-48.9,0-82.4,29.9-82.4,84.7v47.3h-55.3v64.1h55.3v164.5H299.7z"/>
</g>
</svg>
