<?xml version="1.0" encoding="utf-8"?>
<!-- Generator: Adobe Illustrator 18.0.0, SVG Export Plug-In . SVG Version: 6.00 Build 0)  -->
<!DOCTYPE svg PUBLIC "-//W3C//DTD SVG 1.1//EN" "http://www.w3.org/Graphics/SVG/1.1/DTD/svg11.dtd">
<svg version="1.1" id="Layer_1" xmlns="http://www.w3.org/2000/svg" xmlns:xlink="http://www.w3.org/1999/xlink" x="0px" y="0px"
	 viewBox="0 0 794.5 711.7" enable-background="new 0 0 794.5 711.7" xml:space="preserve">
<g>
	<g id="layer1_1_" transform="translate(0,-902.36218)">
		<g id="g4188_1_" transform="matrix(0.26326328,0,0,0.26326328,0.0080002,968.4319)">
			<path id="path4038_1_" fill="#656868" d="M0,2207.9v243.4h70.1v-64h131.2c11.1,0,22.1,10.4,22.1,17.9v47.2h75v-60.1
				c0-13.7-17.6-34.5-45.6-38c20.3,0.2,44.7-12.6,44.7-32.1v-67.2c0-16.5-21.5-46.1-42.1-46.1L0,2207.9z M215.1,2265.3
				c6.5,0,12.8,6.3,12.8,12.8v35.6c0,7.5-5.3,14.4-14.6,14.4H73.1V2266L215.1,2265.3z"/>
			<path id="path4043_1_" fill="#656868" d="M523.4,2207.4L388,2451.1h82.2l21.9-41h158.7l24.2,41.7h82.1l-131.7-244.4H523.4z
				 M571.4,2268.8l50.3,90.3h-102L571.4,2268.8z"/>
			<path id="path4048_1_" fill="#656868" d="M848.4,2208.1v244.4l259.7-0.4c22.7,0,64.9-19.9,64.9-63.5v-116.1
				c0-39.7-37.2-64.5-71.5-64.5H848.4z M924.4,2263.3l146.8,0.5c16.4,0,28.6,14.3,28.6,28.6v76.1c0,16.8-16.3,28.1-28.1,28.1H924.4
				V2263.3L924.4,2263.3z"/>
			<path id="path4053_1_" fill="#656868" d="M1280,2209.5v241.6h77.2v-241.6H1280z"/>
			<path id="path4055_1_" fill="#656868" d="M1514.4,2210.2c-27.2,0-48.7,27.6-48.7,61.7v128.9c0,25.6,21.6,47.5,51.7,47.5h228.8
				c27.9,0,54.5-19.2,54.5-51v-125.4c0-30.3-17.4-61.7-57.3-61.7H1514.4z M1565.6,2264.2H1692c22.1,0,31.7,17.3,31.7,34v69.3
				c0,17.6-14.7,28.2-30.2,28.2h-126.4c-16.6,0-28.6-12.2-28.6-26.3v-71.2C1538.6,2279.4,1550.6,2264.2,1565.6,2264.2z"/>
			<path id="path4080_1_" fill="#F26722" d="M1902.7,2209v242.1h256.5v-52.4h-187.7c0,0,0-182.3,0-189.9
				C1958,2208.8,1902.7,2209,1902.7,2209z"/>
			<path id="path4043-8_1_" fill="#F26722" d="M2378.4,2207.9l-135.4,243.7h82.2l21.9-41h158.7l24.2,41.7h82.1l-131.7-244.4H2378.4z
				 M2426.5,2269.3l50.3,90.3h-102L2426.5,2269.3z"/>
			<path id="path4106_1_" fill="#F26722" d="M2705.1,2209.8v242.5h273.5c13.2,0,39.1-16.3,39.1-40.2v-44.7
				c0-20.5-26.7-37.3-45.1-37.3c17,0,37.5-20,37.5-36.1v-36.1c0-26.3-21.9-48-51.6-48H2705.1z M2777.7,2264.7h139.9
				c21.9,0,18.8,44.4,0,44.4h-139.9V2264.7z M2780.9,2353.8h148.3c21.9,0,18.8,44.4,0,44.4h-148.3V2353.8z"/>
		</g>
		<g id="g4184_1_" transform="matrix(1.488101,0,0,1.488101,-82.992576,413.02706)">
			<path id="path4134_1_" fill="#F26722" d="M304.1,331.9C204.7,331.9,124,412.5,124,512s80.7,179.9,180.1,179.9
				c42.9,0,82.2-15,113.1-40c-15,8.8-32.4,14-51,14c-55.9,0-101.2-45.4-101.2-101.3c0-55.9,45.3-101.2,101.2-101.2
				s101.2,45.3,101.2,101.2c0,12.6-2.5,24.6-6.7,35.8c14.8-26.1,23.3-56.2,23.3-88.4C484,412.5,403.5,331.9,304.1,331.9z"/>
			<path id="path4134-1-2_1_" fill="#656868" d="M378.5,530.9c-25,0-45.4,20.4-45.4,45.4c0,21.4,14.8,39.2,34.7,44v-64.2h17.1v8.9
				c2.4-4.7,8-9.3,11.8-9.3h10.1v15.4c-8.7,0-14.5,0.9-18.6,5.3v44c20.3-4.5,35.4-22.5,35.4-44.2
				C423.7,551.3,403.5,530.9,378.5,530.9z"/>
		</g>
	</g>
</g>
</svg>
