<?xml version="1.0" encoding="utf-8"?>
<!-- Generator: Adobe Illustrator 18.0.0, SVG Export Plug-In . SVG Version: 6.00 Build 0)  -->
<!DOCTYPE svg PUBLIC "-//W3C//DTD SVG 1.1//EN" "http://www.w3.org/Graphics/SVG/1.1/DTD/svg11.dtd">
<svg version="1.1" id="Layer_1" xmlns="http://www.w3.org/2000/svg" xmlns:xlink="http://www.w3.org/1999/xlink" x="0px" y="0px"
	 viewBox="0 0 1360 950" enable-background="new 0 0 1360 950" xml:space="preserve">
<g>
	<g opacity="0.77">
		<defs>
			<rect id="SVGID_59_" x="-1731.6" y="1140.6" opacity="0.77" width="1361.7" height="942.4"/>
		</defs>
		<clipPath id="SVGID_2_">
			<use xlink:href="#SVGID_59_"  overflow="visible"/>
		</clipPath>
		<g clip-path="url(#SVGID_2_)">
			<g>
				<defs>
					<rect id="SVGID_61_" x="-1832" y="1136.8" width="1819.4" height="957.3"/>
				</defs>
				<clipPath id="SVGID_4_">
					<use xlink:href="#SVGID_61_"  overflow="visible"/>
				</clipPath>
				<g transform="matrix(1 0 0 1 0 0)" clip-path="url(#SVGID_4_)">
					
						<image overflow="visible" width="1920" height="1200" xlink:href="../../../../../../../Desktop/Screen Shot 2014-11-19 at 9.36.13 PM (2).png"  transform="matrix(1.1913 0 0 1.3057 -2154.4541 709.0043)">
					</image>
				</g>
			</g>
		</g>
	</g>
</g>
<g>
	<rect x="-16.6" y="0" fill="#343535" width="1387.8" height="950"/>
	<g opacity="0.77">
		<defs>
			<rect id="SVGID_69_" x="-3.6" y="0" opacity="0.77" width="1361.7" height="942.4"/>
		</defs>
		<clipPath id="SVGID_6_">
			<use xlink:href="#SVGID_69_"  overflow="visible"/>
		</clipPath>
		<g clip-path="url(#SVGID_6_)">
			<g>
				<defs>
					<rect id="SVGID_71_" x="-104" y="-3.8" width="1819.4" height="957.3"/>
				</defs>
				<clipPath id="SVGID_8_">
					<use xlink:href="#SVGID_71_"  overflow="visible"/>
				</clipPath>
				<g transform="matrix(1 0 0 1 3.051758e-05 0)" clip-path="url(#SVGID_8_)">
					
						<image overflow="visible" width="1920" height="1200" xlink:href="../../../../../../../Desktop/Screen Shot 2014-11-19 at 9.36.13 PM (2).png"  transform="matrix(1.1913 0 0 1.3057 -426.5135 -431.5863)">
					</image>
				</g>
			</g>
		</g>
	</g>
	<g>
		<defs>
			<rect id="SVGID_73_" x="-88.7" y="838.8" width="1390.1" height="300.7"/>
		</defs>
		<clipPath id="SVGID_10_">
			<use xlink:href="#SVGID_73_"  overflow="visible"/>
		</clipPath>
		<g clip-path="url(#SVGID_10_)">
			<g>
				<defs>
					<rect id="SVGID_75_" x="952.9" y="848.3" width="348.5" height="707.1"/>
				</defs>
				<clipPath id="SVGID_12_">
					<use xlink:href="#SVGID_75_"  overflow="visible"/>
				</clipPath>
				<g transform="matrix(1 0 0 1 0 0)" clip-path="url(#SVGID_12_)">
					
						<image overflow="visible" width="1920" height="1200" xlink:href="../../../../../../../Desktop/Screen Shot 2014-11-19 at 10.20.08 PM (2).png"  transform="matrix(0.9362 0 0 0.9362 -374.8458 562.1959)">
					</image>
				</g>
			</g>
			<g>
				<defs>
					<rect id="SVGID_77_" x="609.1" y="848.3" width="348.5" height="707.1"/>
				</defs>
				<clipPath id="SVGID_14_">
					<use xlink:href="#SVGID_77_"  overflow="visible"/>
				</clipPath>
				<g transform="matrix(1 0 0 1 0 0)" clip-path="url(#SVGID_14_)">
					
						<image overflow="visible" width="1920" height="1200" xlink:href="../../../../../../../Desktop/Screen Shot 2014-11-19 at 10.20.08 PM (2).png"  transform="matrix(0.9362 0 0 0.9362 -718.6561 562.1959)">
					</image>
				</g>
			</g>
			<g>
				<defs>
					<rect id="SVGID_79_" x="265.3" y="848.3" width="348.5" height="707.1"/>
				</defs>
				<clipPath id="SVGID_16_">
					<use xlink:href="#SVGID_79_"  overflow="visible"/>
				</clipPath>
				<g transform="matrix(1 0 0 1 0 0)" clip-path="url(#SVGID_16_)">
					
						<image overflow="visible" width="1920" height="1200" xlink:href="../../../../../../../Desktop/Screen Shot 2014-11-19 at 10.20.08 PM (2).png"  transform="matrix(0.9362 0 0 0.9362 -1062.4664 562.1959)">
					</image>
				</g>
			</g>
			<g>
				<defs>
					<rect id="SVGID_81_" x="-78.6" y="848.3" width="348.5" height="707.1"/>
				</defs>
				<clipPath id="SVGID_18_">
					<use xlink:href="#SVGID_81_"  overflow="visible"/>
				</clipPath>
				<g transform="matrix(1 0 0 1 0 0)" clip-path="url(#SVGID_18_)">
					
						<image overflow="visible" width="1920" height="1200" xlink:href="../../../../../../../Desktop/Screen Shot 2014-11-19 at 10.20.08 PM (2).png"  transform="matrix(0.9362 0 0 0.9362 -1406.2767 562.1959)">
					</image>
				</g>
			</g>
		</g>
	</g>
	<g>
		<defs>
			<rect id="SVGID_83_" x="933.3" y="-559" width="348.5" height="707.1"/>
		</defs>
		<clipPath id="SVGID_20_">
			<use xlink:href="#SVGID_83_"  overflow="visible"/>
		</clipPath>
		<g transform="matrix(1 0 0 1 0 0)" clip-path="url(#SVGID_20_)">
			
				<image overflow="visible" width="1920" height="1200" xlink:href="../../../../../../../Desktop/Screen Shot 2014-11-19 at 10.20.08 PM (2).png"  transform="matrix(0.9362 0 0 0.9362 -394.381 -845.1145)">
			</image>
		</g>
	</g>
	<g>
		<defs>
			<rect id="SVGID_85_" x="594.4" y="-559" width="348.5" height="707.1"/>
		</defs>
		<clipPath id="SVGID_22_">
			<use xlink:href="#SVGID_85_"  overflow="visible"/>
		</clipPath>
		<g transform="matrix(1 0 0 1 0 0)" clip-path="url(#SVGID_22_)">
			
				<image overflow="visible" width="1920" height="1200" xlink:href="../../../../../../../Desktop/Screen Shot 2014-11-19 at 10.20.08 PM (2).png"  transform="matrix(0.9362 0 0 0.9362 -733.3215 -845.1144)">
			</image>
		</g>
	</g>
	<g>
		<defs>
			<rect id="SVGID_87_" x="245.9" y="-559" width="348.5" height="707.1"/>
		</defs>
		<clipPath id="SVGID_24_">
			<use xlink:href="#SVGID_87_"  overflow="visible"/>
		</clipPath>
		<g transform="matrix(1 0 0 1 0 0)" clip-path="url(#SVGID_24_)">
			
				<image overflow="visible" width="1920" height="1200" xlink:href="../../../../../../../Desktop/Screen Shot 2014-11-19 at 10.20.08 PM (2).png"  transform="matrix(0.9362 0 0 0.9362 -1081.853 -845.1144)">
			</image>
		</g>
	</g>
	<g>
		<defs>
			<rect id="SVGID_89_" x="-102.7" y="-559" width="348.5" height="707.1"/>
		</defs>
		<clipPath id="SVGID_26_">
			<use xlink:href="#SVGID_89_"  overflow="visible"/>
		</clipPath>
		<g transform="matrix(1 0 0 1 0 0)" clip-path="url(#SVGID_26_)">
			
				<image overflow="visible" width="1920" height="1200" xlink:href="../../../../../../../Desktop/Screen Shot 2014-11-19 at 10.20.08 PM (2).png"  transform="matrix(0.9362 0 0 0.9362 -1430.3844 -845.1144)">
			</image>
		</g>
	</g>
	<g>
		<defs>
			<rect id="SVGID_91_" x="-120.6" y="144.2" width="1399.8" height="705.2"/>
		</defs>
		<clipPath id="SVGID_28_">
			<use xlink:href="#SVGID_91_"  overflow="visible"/>
		</clipPath>
		<g transform="matrix(1 0 0 1 0 0)" clip-path="url(#SVGID_28_)">
			
				<image overflow="visible" width="1920" height="1200" xlink:href="../../../../../../../Desktop/Screen Shot 2014-11-19 at 10.20.08 PM (2).png"  transform="matrix(0.9362 0 0 0.9362 -397.0544 -143.9192)">
			</image>
		</g>
	</g>
	<rect x="0" y="182.9" opacity="0.11" fill="#FFFFFF" width="218.5" height="599.4"/>
	<g>
		
			<image overflow="visible" opacity="0.47" width="1287" height="1226" xlink:href="34E2D189724474CD.png"  transform="matrix(0.24 0 0 0.24 994.9242 -59.2744)">
		</image>
		<g>
			<g>
				<g>
					<g id="layer1_20_" transform="translate(0,-902.36218)">
						<g id="g4188_8_" transform="matrix(0.26326328,0,0,0.26326328,0.0080002,968.4319)">
							<path id="path4038_8_" fill="#656968" d="M4110.2,268.4v41.2h11.9v-10.8h22.2c1.9,0,3.7,1.8,3.7,3v8h12.7v-10.2
								c0-2.3-3-5.8-7.7-6.4c3.4,0,7.6-2.1,7.6-5.4v-11.4c0-2.8-3.6-7.8-7.1-7.8L4110.2,268.4z M4146.7,278.1c1.1,0,2.2,1.1,2.2,2.2
								v6c0,1.3-0.9,2.4-2.5,2.4h-23.7v-10.5L4146.7,278.1z"/>
							<path id="path4043_8_" fill="#656968" d="M4198.9,268.3l-22.9,41.3h13.9l3.7-6.9h26.9l4.1,7.1h13.9l-22.3-41.4L4198.9,268.3
								L4198.9,268.3z M4207,278.7l8.5,15.3h-17.3L4207,278.7z"/>
							<path id="path4048_8_" fill="#656968" d="M4253.9,268.5v41.4l44-0.1c3.8,0,11-3.4,11-10.8v-19.7c0-6.7-6.3-10.9-12.1-10.9
								L4253.9,268.5L4253.9,268.5z M4266.8,277.8l24.9,0.1c2.8,0,4.8,2.4,4.8,4.8v12.9c0,2.8-2.8,4.8-4.8,4.8h-24.9V277.8
								L4266.8,277.8z"/>
							<path id="path4053_8_" fill="#656968" d="M4327,268.7v40.9h13.1v-40.9H4327z"/>
							<path id="path4055_8_" fill="#656968" d="M4366.7,268.8c-4.6,0-8.2,4.7-8.2,10.4v21.8c0,4.3,3.7,8,8.8,8h38.7
								c4.7,0,9.2-3.3,9.2-8.6v-21.2c0-5.1-2.9-10.4-9.7-10.4H4366.7z M4375.4,278h21.4c3.7,0,5.4,2.9,5.4,5.8v11.7
								c0,3-2.5,4.8-5.1,4.8h-21.4c-2.8,0-4.8-2.1-4.8-4.5v-12.1C4370.8,280.5,4372.8,278,4375.4,278z"/>
							<path id="path4080_8_" fill="#F16824" d="M4432.5,268.6v41h43.4v-8.9h-31.8c0,0,0-30.9,0-32.2
								C4441.8,268.6,4432.5,268.6,4432.5,268.6z"/>
							<path id="path4043-8_8_" fill="#F16824" d="M4513,268.4l-22.9,41.3h13.9l3.7-6.9h26.9l4.1,7.1h13.9l-22.3-41.4H4513z
								 M4521.2,278.8l8.5,15.3h-17.3L4521.2,278.8z"/>
							<path id="path4106_8_" fill="#F16824" d="M4568.4,268.7v41.1h46.3c2.2,0,6.6-2.8,6.6-6.8v-7.6c0-3.5-4.5-6.3-7.6-6.3
								c2.9,0,6.4-3.4,6.4-6.1v-6.1c0-4.5-3.7-8.1-8.7-8.1L4568.4,268.7L4568.4,268.7z M4580.6,278h23.7c3.7,0,3.2,7.5,0,7.5h-23.7
								V278z M4581.2,293.1h25.1c3.7,0,3.2,7.5,0,7.5h-25.1V293.1z"/>
						</g>
						<g id="g4184_9_" transform="matrix(1.488101,0,0,1.488101,-82.992576,413.02706)">
							<path id="path4134_9_" fill="#F16824" d="M825,347.6c-16.8,0-30.5,13.7-30.5,30.5c0,16.9,13.7,30.5,30.5,30.5
								c7.3,0,13.9-2.5,19.2-6.8c-2.5,1.5-5.5,2.4-8.6,2.4c-9.5,0-17.1-7.7-17.1-17.2c0-9.5,7.7-17.1,17.1-17.1s17.1,7.7,17.1,17.1
								c0,2.1-0.4,4.2-1.1,6.1c2.5-4.4,3.9-9.5,3.9-15C855.4,361.2,841.8,347.6,825,347.6z"/>
							<path id="path4134-1-2_9_" fill="#656968" d="M837.6,381.3c-4.2,0-7.7,3.5-7.7,7.7c0,3.6,2.5,6.6,5.9,7.5v-10.9h2.9v1.5
								c0.4-0.8,1.4-1.6,2-1.6h1.7v2.6c-1.5,0-2.5,0.2-3.2,0.9v7.5c3.4-0.8,6-3.8,6-7.5C845.2,384.7,841.8,381.3,837.6,381.3z"/>
						</g>
					</g>
				</g>
			</g>
		</g>
	</g>
	<rect x="-1.3" y="826" opacity="0.12" fill="#050606" width="1361.3" height="83.3"/>
	<g>
		<polygon fill="#F16824" points="61.3,868.7 53.6,868.7 61.3,868.6 61.3,868.6 61.3,868.6 28.7,850.4 28.7,868.6 28.7,868.7 
			28.7,886.9 		"/>
		<rect x="72.3" y="850.4" fill="#F16824" width="8.1" height="36.5"/>
		<rect x="84.3" y="850.4" fill="#F16824" width="8.1" height="36.5"/>
		<rect x="124.4" y="878.2" fill="#F16824" width="323.6" height="4.8"/>
		<circle fill="#656968" cx="151.5" cy="880.6" r="6.7"/>
		<path fill="#656968" d="M173.9,860.9h-44.7c-5.1,0-9.2-4.1-9.2-9.2v-1.5c0-5.1,4.1-9.2,9.2-9.2h44.7c5.1,0,9.2,4.1,9.2,9.2v1.5
			C183.1,856.8,179,860.9,173.9,860.9z"/>
		<polygon fill="#656968" points="151.5,870.4 151.5,866.5 151.5,870.4 151.6,870.4 151.6,870.4 160.8,853.8 151.6,853.8 
			151.5,853.8 142.2,853.8 		"/>
		<text transform="matrix(1 0 0 1 125.4393 854.4263)" fill="#F16824" font-family="'FiraSansOT'" font-size="11">2:34/25:42</text>
	</g>
	<g>
		<rect x="978.4" y="371.1" fill="none" width="337.9" height="177.3"/>
		<text transform="matrix(1 0 0 1 978.4125 382.2667)"><tspan x="0" y="0" fill="#FFFFFF" font-family="'FiraSansOT'" font-size="14.9384">Radiolab is a show about curiosity. Where sound </tspan><tspan x="0" y="17.9" fill="#FFFFFF" font-family="'FiraSansOT'" font-size="14.9384">illuminates ideas, and the boundaries blur be</tspan><tspan x="310.6" y="17.9" fill="#FFFFFF" font-family="'FiraSansOT'" font-size="14.9384">-</tspan><tspan x="0" y="35.9" fill="#FFFFFF" font-family="'FiraSansOT'" font-size="14.9384">tween science, philosophy, and human experi</tspan><tspan x="310.8" y="35.9" fill="#FFFFFF" font-family="'FiraSansOT'" font-size="14.9384">-</tspan><tspan x="0" y="53.8" fill="#FFFFFF" font-family="'FiraSansOT'" font-size="14.9384">ence.</tspan><tspan x="0" y="89.6" fill="#FFFFFF" font-family="'FiraSansOT'" font-size="14.9384">Radiolab is heard around the country on more </tspan><tspan x="0" y="107.6" fill="#FFFFFF" font-family="'FiraSansOT'" font-size="14.9384">than 450 NPR member stations. Check your local </tspan><tspan x="0" y="125.5" fill="#FFFFFF" font-family="'FiraSansOT'" font-size="14.9384">station for airtimes.</tspan></text>
	</g>
	<rect x="978.4" y="537.8" fill="none" width="337.9" height="94.5"/>
	<text transform="matrix(1 0 0 1 978.412 547.4642)"><tspan x="0" y="0" fill="#FFFFFF" font-family="'FiraSansOTLight'" font-size="13">Radiolab is supported, in part, by the National Science </tspan><tspan x="0" y="15.6" fill="#FFFFFF" font-family="'FiraSansOTLight'" font-size="13">Foundation and the Alfred P. Sloan Foundation, enhanc</tspan><tspan x="323.4" y="15.6" fill="#FFFFFF" font-family="'FiraSansOTLight'" font-size="13">-</tspan><tspan x="0" y="31.2" fill="#FFFFFF" font-family="'FiraSansOTLight'" font-size="13">ing public understanding of science and technology in </tspan><tspan x="0" y="46.8" fill="#FFFFFF" font-family="'FiraSansOTLight'" font-size="13">the modern world. More information about Sloan at </tspan><tspan x="0" y="62.4" fill="#FFFFFF" font-family="'FiraSansOTLight'" font-size="13">www.sloan.org.</tspan></text>
	<rect x="-2.6" y="909.2" opacity="0.33" fill="#050606" width="1360.8" height="41.1"/>
	<g>
		<text transform="matrix(1 0 0 1 28.6622 935.7752)" fill="#FFFFFF" font-family="'FiraSansOT-Bold'" font-size="18">Play Queue </text>
	</g>
	<g>
		<rect x="974.5" y="642.2" opacity="0.88" fill="#F16824" width="206.2" height="63.3"/>
		<text transform="matrix(1 0 0 1 989.8026 680.3919)" fill="#FFFFFF" font-family="'FiraSansOTLight'" font-size="22">Support RadioLab</text>
	</g>
	<g>
		<rect x="974.5" y="733.7" opacity="0.88" fill="#F16824" width="98.4" height="63.3"/>
		<text transform="matrix(1 0 0 1 990.2687 771.887)" fill="#FFFFFF" font-family="'FiraSansOTLight'" font-size="22">Sign In</text>
	</g>
	<text transform="matrix(1 0 0 1 94.6403 107.5423)" fill="#FFFFFF" font-family="'FiraSansOTLight'" font-size="46.3806">Watch</text>
	<g>
		<rect x="280.6" y="70.2" fill="none" width="554.7" height="58.3"/>
		<text transform="matrix(1 0 0 1 280.6414 87.5313)"><tspan x="0" y="0" fill="#FFFFFF" font-family="'FiraSansOTMedium'" font-size="23">&apos;Murdersquishing&apos; Them To Death: How Little Bees </tspan><tspan x="0" y="27.6" fill="#FFFFFF" font-family="'FiraSansOTMedium'" font-size="23">Take On Enormous Hornets</tspan></text>
	</g>
	<rect x="972.4" y="255" opacity="0.25" fill="#050606" width="334.8" height="59.6"/>
	<text transform="matrix(1 0 0 1 985.2692 292.6397)" fill="#FFFFFF" font-family="'FiraSansOTLight'" font-size="22">Search...</text>
	<polygon fill="#FFFFFF" points="40,89.8 48.3,89.8 40,89.9 40,90 40,90 75.3,109.6 75.3,90 75.3,89.8 75.3,70.1 	"/>
	<g>
		<g>
			<g>
				<path fill="#FFFFFF" d="M267.2,187.5h-24.5c-0.8,0-1.5,0.7-1.5,1.5v24.5c0,0.8,0.7,1.5,1.5,1.5h13.2v-10.7h-3.6v-4.2h3.6v-3.1
					c0-3.6,2.2-5.5,5.4-5.5c1.5,0,2.8,0.1,3.2,0.2v3.7h-2.2c-1.7,0-2.1,0.8-2.1,2v2.7h4.1l-0.5,4.2h-3.6v10.7h7v0
					c0.8,0,1.5-0.7,1.5-1.5V189C268.7,188.2,268,187.5,267.2,187.5z"/>
				<rect x="255.9" y="215.1" fill="#FFFFFF" width="4.3" height="0"/>
			</g>
		</g>
	</g>
	<g>
		<g>
			<g id="layer1_18_" transform="translate(-282.32053,-396.30734)">
				<path id="path5_8_" fill="#FFFFFF" d="M549.9,634.2c-1,0.4-2,0.7-3.1,0.9c1.1-0.7,2-1.7,2.4-3c-1,0.6-2.2,1.1-3.5,1.3
					c-1-1.1-2.4-1.7-4-1.7c-3,0-5.4,2.4-5.4,5.4c0,0.4,0,0.8,0.1,1.2c-4.5-0.2-8.5-2.4-11.2-5.7c-0.5,0.8-0.7,1.7-0.7,2.7
					c0,1.9,1,3.5,2.4,4.5c-0.9,0-1.7-0.3-2.5-0.7c0,0,0,0,0,0.1c0,2.6,1.9,4.8,4.4,5.3c-0.5,0.1-0.9,0.2-1.4,0.2c-0.3,0-0.7,0-1-0.1
					c0.7,2.2,2.7,3.7,5.1,3.8c-1.9,1.5-4.2,2.3-6.7,2.3c-0.4,0-0.9,0-1.3-0.1c2.4,1.5,5.3,2.4,8.3,2.4c10,0,15.5-8.3,15.5-15.5
					c0-0.2,0-0.5,0-0.7C548.3,636.3,549.2,635.3,549.9,634.2L549.9,634.2z"/>
			</g>
		</g>
	</g>
	<rect x="13" y="217.1" fill="none" width="190.8" height="47.9"/>
	<text transform="matrix(1 0 0 1 13.017 229.2025)" fill="#FFFFFF" font-family="'FiraSansOT-Bold'" font-size="16">Like Watching Pitch Drop</text>
	<rect x="13" y="261" fill="none" width="190.8" height="47.9"/>
	<text transform="matrix(1 0 0 1 13.017 273.0038)"><tspan x="0" y="0" fill="#FFFFFF" font-family="'FiraSansOT'" font-size="16">Explaining The Flashlight </tspan><tspan x="0" y="19.2" fill="#FFFFFF" font-family="'FiraSansOT'" font-size="16">Sessions</tspan></text>
	<rect x="13" y="384.1" fill="none" width="190.8" height="47.9"/>
	<text transform="matrix(1 0 0 1 13.017 396.0682)" fill="#FFFFFF" font-family="'FiraSansOT'" font-size="16">Musical Translations</text>
	<rect x="13" y="431.1" fill="none" width="190.8" height="47.9"/>
	<text transform="matrix(1 0 0 1 13.017 443.0553)" fill="#FFFFFF" font-family="'FiraSansOT'" font-size="16">Bob Milne Rocking Out</text>
	<rect x="13" y="486" fill="none" width="190.8" height="47.9"/>
	<text transform="matrix(1 0 0 1 13.017 498.0426)" fill="#FFFFFF" font-family="'FiraSansOT'" font-size="16">Radiolab en Espanol</text>
	<rect x="13" y="537" fill="none" width="190.8" height="83.7"/>
	<text transform="matrix(1 0 0 1 13.017 549.0294)"><tspan x="0" y="0" fill="#FFFFFF" font-family="'FiraSansOT'" font-size="16">Getting to the Finish Line: </tspan><tspan x="0" y="19.2" fill="#FFFFFF" font-family="'FiraSansOT'" font-size="16">The (Non) Limits of One </tspan><tspan x="0" y="38.4" fill="#FFFFFF" font-family="'FiraSansOT'" font-size="16">Woman’s Endurance</tspan></text>
	<rect x="13" y="620" fill="none" width="190.8" height="61.3"/>
	<text transform="matrix(1 0 0 1 13.017 632.0165)"><tspan x="0" y="0" fill="#FFFFFF" font-family="'FiraSansOT'" font-size="16">It’s a Very Tough Little </tspan><tspan x="0" y="19.2" fill="#FFFFFF" font-family="'FiraSansOT'" font-size="16">Spaceship and It Knows </tspan><tspan x="0" y="38.4" fill="#FFFFFF" font-family="'FiraSansOT'" font-size="16">What it ‘s Doing</tspan></text>
	<rect x="13" y="702" fill="none" width="190.8" height="56.6"/>
	<text transform="matrix(1 0 0 1 13.017 714.003)"><tspan x="0" y="0" fill="#FFFFFF" font-family="'FiraSansOT'" font-size="16">Is That A Lark I Hear? A </tspan><tspan x="0" y="19.2" fill="#FFFFFF" font-family="'FiraSansOT'" font-size="16">Nightingale? Suprise It’s A </tspan><tspan x="0" y="38.4" fill="#FFFFFF" font-family="'FiraSansOT'" font-size="16">Bat</tspan></text>
	<rect x="13" y="326.7" fill="none" width="190.8" height="47.9"/>
	<text transform="matrix(1 0 0 1 13.017 338.6524)"><tspan x="0" y="0" fill="#FFFFFF" font-family="'FiraSansOT'" font-size="16">Your Future Memories are </tspan><tspan x="0" y="19.2" fill="#FFFFFF" font-family="'FiraSansOT'" font-size="16">at stake</tspan></text>
	<g>
		<defs>
			<rect id="SVGID_93_" x="0" y="765.4" width="203.8" height="15.6"/>
		</defs>
		<clipPath id="SVGID_30_">
			<use xlink:href="#SVGID_93_"  overflow="visible"/>
		</clipPath>
		<g clip-path="url(#SVGID_30_)">
			<rect x="13" y="773.9" fill="none" width="190.8" height="56.6"/>
			<text transform="matrix(1 0 0 1 13.017 785.8867)" fill="#FFFFFF" font-family="'FiraSansOT'" font-size="16">George In New Jersey</text>
		</g>
	</g>
	<path opacity="0.7" fill="#FFFFFF" d="M212,237.1L212,237.1c-1.6,0-2.9-1.3-2.9-2.9v-28.1c0-1.6,1.3-2.9,2.9-2.9h0
		c1.6,0,2.9,1.3,2.9,2.9v28.1C214.9,235.8,213.6,237.1,212,237.1z"/>
	<path opacity="0.7" fill="#FFFFFF" d="M945.9,773.8L945.9,773.8c-1.6,0-2.9-1.3-2.9-2.9V351.8c0-1.6,1.3-2.9,2.9-2.9h0
		c1.6,0,2.9,1.3,2.9,2.9v419.1C948.8,772.5,947.5,773.8,945.9,773.8z"/>
	<g>
		<defs>
			<rect id="SVGID_95_" x="1279.2" y="246.1" width="348.5" height="707.1"/>
		</defs>
		<clipPath id="SVGID_32_">
			<use xlink:href="#SVGID_95_"  overflow="visible"/>
		</clipPath>
		<g transform="matrix(1 0 0 1 0 0)" clip-path="url(#SVGID_32_)">
			
				<image overflow="visible" width="1920" height="1200" xlink:href="../../../../../../../Desktop/Screen Shot 2014-11-19 at 10.20.08 PM (2).png"  transform="matrix(0.9362 0 0 0.9362 -48.523 -40.0151)">
			</image>
		</g>
	</g>
	<g>
		<defs>
			<rect id="SVGID_97_" x="1279.2" y="-451" width="348.5" height="707.1"/>
		</defs>
		<clipPath id="SVGID_34_">
			<use xlink:href="#SVGID_97_"  overflow="visible"/>
		</clipPath>
		<g transform="matrix(1 0 0 1 0 0)" clip-path="url(#SVGID_34_)">
			
				<image overflow="visible" width="1920" height="1200" xlink:href="../../../../../../../Desktop/Screen Shot 2014-11-19 at 10.20.08 PM (2).png"  transform="matrix(0.9362 0 0 0.9362 -48.523 -737.1301)">
			</image>
		</g>
	</g>
</g>
<rect x="1360" y="-343" fill="#5D5E5E" width="285.1" height="1738.5"/>
<rect x="-188.8" y="-467.3" fill="#5D5E5E" width="191.3" height="1606.9"/>
</svg>
