<?xml version="1.0" encoding="utf-8"?>
<!-- Generator: Adobe Illustrator 18.0.0, SVG Export Plug-In . SVG Version: 6.00 Build 0)  -->
<!DOCTYPE svg PUBLIC "-//W3C//DTD SVG 1.1//EN" "http://www.w3.org/Graphics/SVG/1.1/DTD/svg11.dtd">
<svg version="1.1" id="Layer_1" xmlns="http://www.w3.org/2000/svg" xmlns:xlink="http://www.w3.org/1999/xlink" x="0px" y="0px"
	 viewBox="0 0 647.8 969.6" enable-background="new 0 0 647.8 969.6" xml:space="preserve">
<g>
	<defs>
		<rect id="SVGID_5_" x="0" y="-0.9" width="646.9" height="971.4"/>
	</defs>
	<clipPath id="SVGID_2_">
		<use xlink:href="#SVGID_5_"  overflow="visible"/>
	</clipPath>
	<g clip-path="url(#SVGID_2_)">
		<defs>
			<rect id="SVGID_7_" x="-390.6" y="-0.4" width="1381.6" height="979.7"/>
		</defs>
		<use xlink:href="#SVGID_7_"  overflow="visible" fill="#050606"/>
		<clipPath id="SVGID_4_">
			<use xlink:href="#SVGID_7_"  overflow="visible"/>
		</clipPath>
		<g id="AShzMd_5_" opacity="0.8" clip-path="url(#SVGID_4_)">
			<g>
				
					<image overflow="visible" width="620" height="372" id="AShzMd_22_" xlink:href="E58E6E9BADABDFEC.png"  transform="matrix(2.6229 0 0 2.6598 -627.0232 -5.4068)">
				</image>
			</g>
		</g>
	</g>
</g>
<g>
	<g>
		<g>
			<g id="layer1_29_" transform="translate(0,-902.36218)">
				<g id="g4184_19_" transform="matrix(1.488101,0,0,1.488101,-82.992576,413.02706)">
					<path id="path4134_19_" fill="#F16824" d="M229.5,345.9c-17.4,0-31.6,14.1-31.6,31.6c0,17.4,14.1,31.5,31.6,31.5
						c7.5,0,14.4-2.6,19.8-7c-2.6,1.5-5.7,2.5-8.9,2.5c-9.8,0-17.7-8-17.7-17.7c0-9.8,7.9-17.7,17.7-17.7c9.8,0,17.7,7.9,17.7,17.7
						c0,2.2-0.4,4.3-1.2,6.3c2.6-4.6,4.1-9.8,4.1-15.5C261,360,246.9,345.9,229.5,345.9z"/>
					<path id="path4134-1-2_19_" fill="#656968" d="M242.5,380.8c-4.4,0-8,3.6-8,8c0,3.7,2.6,6.9,6.1,7.7v-11.2h3v1.6
						c0.4-0.8,1.4-1.6,2.1-1.6h1.8v2.7c-1.5,0-2.5,0.2-3.3,0.9v7.7c3.6-0.8,6.2-3.9,6.2-7.7C250.5,384.3,246.9,380.8,242.5,380.8z"
						/>
				</g>
			</g>
		</g>
	</g>
</g>
<text transform="matrix(1 0 0 1 50.0617 354.1489)"><tspan x="0" y="0" fill="#FFFFFF" font-family="'FiraSansOTMedium'" font-size="34.7045" text-decoration=" underline">Patient Zero - Updated</tspan><tspan x="0" y="41.6" fill="#FFFFFF" font-family="'FiraSansOTMedium'" font-size="34.7045" text-decoration=" underline">Season 13 | Episode 3</tspan></text>
<rect x="57.4" y="441.8" fill="none" width="555.6" height="152.1"/>
<text transform="matrix(1 0 0 1 57.3719 459.8339)"><tspan x="0" y="0" fill="#FFFFFF" font-family="'FiraSansOT'" font-size="24">The greatest mysteries have a shadowy figure at </tspan><tspan x="0" y="28.8" fill="#FFFFFF" font-family="'FiraSansOT'" font-size="24">the center—someone who sets things in motion </tspan><tspan x="0" y="57.6" fill="#FFFFFF" font-family="'FiraSansOT'" font-size="24">and holds the key to how the story unfolds—Pa</tspan><tspan x="515.2" y="57.6" fill="#FFFFFF" font-family="'FiraSansOT'" font-size="24">-</tspan><tspan x="0" y="86.4" fill="#FFFFFF" font-family="'FiraSansOT'" font-size="24">tient Zero. This hour, Radiolab hunts for Patient </tspan><tspan x="0" y="115.2" fill="#FFFFFF" font-family="'FiraSansOT'" font-size="24">Zeroes of all kinds and considers the course of an </tspan></text>
<text transform="matrix(1 0 0 1 439.2041 653.4855)" fill="#FFFFFF" font-family="'FiraSansOT-Italic'" font-size="31.0241" text-decoration=" underline">Read More</text>
<text transform="matrix(1 0 0 1 44.0617 220.5877)"><tspan x="0" y="0" fill="#FFFFFF" font-family="'FiraSansOTLight'" font-size="53.7336">Newest Episodes and </tspan><tspan x="0" y="64.5" fill="#FFFFFF" font-family="'FiraSansOTLight'" font-size="53.7336">Podcasts</tspan></text>
<rect x="0.6" y="846.2" opacity="0.12" fill="#050606" width="647.1" height="83.3"/>
<g>
	<polygon fill="#F16824" points="64,888.9 56.3,888.9 64,888.8 64,888.8 64,888.8 31.3,870.6 31.3,888.8 31.3,888.9 31.3,907.1 	"/>
	<rect x="75" y="870.6" fill="#F16824" width="8.1" height="36.5"/>
	<rect x="87" y="870.6" fill="#F16824" width="8.1" height="36.5"/>
	<rect x="127" y="898.4" fill="#F16824" width="323.6" height="4.8"/>
	<circle fill="#656968" cx="154.2" cy="900.8" r="6.7"/>
	<path fill="#656968" d="M176.5,881.1h-44.7c-5.1,0-9.2-4.1-9.2-9.2v-1.5c0-5.1,4.1-9.2,9.2-9.2h44.7c5.1,0,9.2,4.1,9.2,9.2v1.5
		C185.8,877,181.6,881.1,176.5,881.1z"/>
	<polygon fill="#656968" points="154.1,890.6 154.1,886.7 154.2,890.6 154.2,890.6 154.2,890.6 163.5,874 154.2,874 154.1,874 
		144.9,874 	"/>
	<text transform="matrix(1 0 0 1 128.0796 874.6287)" fill="#F16824" font-family="'FiraSansOT'" font-size="11">2:34/25:42</text>
</g>
<rect x="0" y="929.4" opacity="0.33" fill="#050606" width="646.9" height="41.1"/>
<g>
	<text transform="matrix(1 0 0 1 31.3026 955.978)" fill="#FFFFFF" font-family="'FiraSansOT-Bold'" font-size="18">Play Queue </text>
</g>
<g>
	<defs>
		<rect id="SVGID_19_" x="57.4" y="618.9" width="567.2" height="227.3"/>
	</defs>
	<clipPath id="SVGID_6_">
		<use xlink:href="#SVGID_19_"  overflow="visible"/>
	</clipPath>
	<g id="AShzMd_11_" clip-path="url(#SVGID_6_)">
		
			<image overflow="visible" width="620" height="372" id="AShzMd_12_" xlink:href="E58E6E9BADABDFED.png"  transform="matrix(0.5675 0 0 0.5675 59.0298 626.4555)">
		</image>
	</g>
	<polygon opacity="0.67" clip-path="url(#SVGID_6_)" fill="#F16824" points="208.7,740.2 194.1,740.2 208.7,740.1 208.7,739.9 
		208.7,739.9 146.8,705.5 146.8,739.9 146.8,740.2 146.8,774.7 	"/>
	<polygon opacity="0.67" clip-path="url(#SVGID_6_)" fill="#F16824" points="327.5,732.4 300.6,732.4 300.6,705.5 285.2,705.5 
		285.2,732.4 258.4,732.4 258.4,747.8 285.2,747.8 285.2,774.7 300.6,774.7 300.6,747.8 327.5,747.8 	"/>
</g>
<g>
	<g>
		<g>
			<path fill="#FFFFFF" d="M482.4,688.2h-40.7c-1.4,0-2.5,1.1-2.5,2.5v40.7c0,1.4,1.1,2.5,2.5,2.5h21.9v-17.7h-6v-6.9h6v-5.1
				c0-5.9,3.6-9.1,8.9-9.1c2.5,0,4.7,0.2,5.3,0.3v6.2h-3.7c-2.9,0-3.4,1.4-3.4,3.4v4.4h6.8l-0.9,6.9h-5.9V734h11.7v0
				c1.4,0,2.5-1.1,2.5-2.5v-40.7C485,689.4,483.8,688.2,482.4,688.2z"/>
			<rect x="463.6" y="734" fill="#FFFFFF" width="7.1" height="0"/>
		</g>
	</g>
</g>
<g>
	<g>
		<g id="layer1_4_" transform="translate(-282.32053,-396.30734)">
			<path id="path5_1_" fill="#FFFFFF" d="M842.9,1093.8c-1.6,0.7-3.4,1.2-5.2,1.4c1.9-1.1,3.3-2.9,4-5c-1.7,1-3.7,1.8-5.7,2.2
				c-1.6-1.8-4-2.8-6.6-2.8c-5,0-9,4-9,9c0,0.7,0.1,1.4,0.2,2.1c-7.5-0.4-14.1-4-18.6-9.4c-0.8,1.3-1.2,2.9-1.2,4.5
				c0,3.1,1.6,5.9,4,7.5c-1.5,0-2.9-0.5-4.1-1.1c0,0,0,0.1,0,0.1c0,4.4,3.1,8,7.2,8.8c-0.8,0.2-1.5,0.3-2.4,0.3
				c-0.6,0-1.1-0.1-1.7-0.2c1.1,3.6,4.5,6.2,8.4,6.3c-3.1,2.4-7,3.9-11.2,3.9c-0.7,0-1.4,0-2.1-0.1c4,2.6,8.7,4.1,13.8,4.1
				c16.6,0,25.6-13.7,25.6-25.6c0-0.4,0-0.8,0-1.2C840.2,1097.2,841.7,1095.6,842.9,1093.8L842.9,1093.8z"/>
		</g>
	</g>
</g>
<g>
	<defs>
		<rect id="SVGID_25_" x="501" y="46.9" width="158.2" height="65.8"/>
	</defs>
	<clipPath id="SVGID_8_">
		<use xlink:href="#SVGID_25_"  overflow="visible"/>
	</clipPath>
	<g clip-path="url(#SVGID_8_)">
		<text transform="matrix(1 0 0 1 535.1815 89.4522)" fill="#FFFFFF" font-family="'FiraSansOTLight'" font-size="32.726">About</text>
		<rect x="629.5" y="57.6" fill="#FFFFFF" width="17.4" height="10.7"/>
		<rect x="629.5" y="73.9" fill="#FFFFFF" width="17.4" height="10.7"/>
		<rect x="629.5" y="90.1" fill="#FFFFFF" width="17.4" height="10.7"/>
	</g>
</g>
<g>
	<defs>
		<rect id="SVGID_27_" x="0.1" y="42.9" width="168.5" height="65.8"/>
	</defs>
	<clipPath id="SVGID_10_">
		<use xlink:href="#SVGID_27_"  overflow="visible"/>
	</clipPath>
	<g clip-path="url(#SVGID_10_)">
		<text transform="matrix(1 0 0 1 25.867 85.4522)" fill="#FFFFFF" font-family="'FiraSansOTLight'" font-size="32.726">Sections</text>
		<rect x="-22.1" y="53.6" fill="#FFFFFF" width="40.2" height="10.7"/>
		<rect x="-22.1" y="69.9" fill="#FFFFFF" width="40.2" height="10.7"/>
		<rect x="-22.1" y="86.1" fill="#FFFFFF" width="40.2" height="10.7"/>
	</g>
</g>
<text transform="matrix(1 0 0 1 326.7746 89.498)" fill="#FFFFFF" font-family="'FiraSansOTLight'" font-size="32.726">Radiolab</text>
<g>
	<defs>
		<rect id="SVGID_31_" x="-899.4" y="231.3" width="646.9" height="971.4"/>
	</defs>
	<clipPath id="SVGID_12_">
		<use xlink:href="#SVGID_31_"  overflow="visible"/>
	</clipPath>
	<g clip-path="url(#SVGID_12_)">
		<defs>
			<rect id="SVGID_33_" x="-1290" y="231.7" width="1381.6" height="979.7"/>
		</defs>
		<use xlink:href="#SVGID_33_"  overflow="visible" fill="#050606"/>
		<clipPath id="SVGID_14_">
			<use xlink:href="#SVGID_33_"  overflow="visible"/>
		</clipPath>
		<g id="AShzMd_6_" opacity="0.8" clip-path="url(#SVGID_14_)">
			<g>
				
					<image overflow="visible" width="620" height="372" id="AShzMd_30_" xlink:href="E58E6E9BADABDFEB.png"  transform="matrix(2.6229 0 0 2.6598 -1526.4084 226.7419)">
				</image>
			</g>
		</g>
	</g>
</g>
</svg>
