<?xml version="1.0" encoding="utf-8"?>
<!-- Generator: Adobe Illustrator 18.0.0, SVG Export Plug-In . SVG Version: 6.00 Build 0)  -->
<!DOCTYPE svg PUBLIC "-//W3C//DTD SVG 1.1//EN" "http://www.w3.org/Graphics/SVG/1.1/DTD/svg11.dtd">
<svg version="1.1" id="Layer_1" xmlns="http://www.w3.org/2000/svg" xmlns:xlink="http://www.w3.org/1999/xlink" x="0px" y="0px"
	 viewBox="0 0 1360 950" enable-background="new 0 0 1360 950" xml:space="preserve">
<rect x="-16.6" y="0" fill="#787F7F" width="1387.8" height="950"/>
<rect x="357.6" y="0.1" fill="#FFFFFF" width="587.2" height="826.6"/>
<g>
	<defs>
		<rect id="SVGID_15_" x="-2.6" y="0.1" width="1362.6" height="949.9"/>
	</defs>
	<clipPath id="SVGID_2_">
		<use xlink:href="#SVGID_15_"  overflow="visible"/>
	</clipPath>
	<g clip-path="url(#SVGID_2_)">
		<g>
			<g>
				<g id="WfOPNp_18_">
					
						<image overflow="visible" width="620" height="372" id="WfOPNp_19_" xlink:href="E586038EF39D8BA5.png"  transform="matrix(2.5546 0 0 2.5546 -112.5069 -0.1513)">
					</image>
				</g>
			</g>
		</g>
	</g>
</g>
<rect x="0" y="182.9" opacity="0.11" fill="#FFFFFF" width="218.5" height="599.4"/>
<g>
	
		<image overflow="visible" opacity="0.47" width="1551" height="1477" xlink:href="E586038EF39D8BA7.png"  transform="matrix(0.24 0 0 0.24 952.3013 -47.3836)">
	</image>
	<g>
		<g>
			<g>
				<g id="layer1_1_" transform="translate(0,-902.36218)">
					<g id="g4188_1_" transform="matrix(0.26326328,0,0,0.26326328,0.0080002,968.4319)">
						<path id="path4038_1_" fill="#656968" d="M4016.1,466.1v49.7h14.3v-13.1h26.8c2.3,0,4.5,2.1,4.5,3.7v9.6h15.3v-12.3
							c0-2.8-3.6-7-9.3-7.8c4.1,0,9.1-2.6,9.1-6.5v-13.7c0-3.4-4.4-9.4-8.6-9.4L4016.1,466.1z M4060,477.8c1.3,0,2.6,1.3,2.6,2.6
							v7.3c0,1.5-1.1,2.9-3,2.9H4031v-12.7L4060,477.8z"/>
						<path id="path4043_1_" fill="#656968" d="M4122.9,466l-27.6,49.7h16.8l4.5-8.4h32.4l4.9,8.5h16.8l-26.9-49.9L4122.9,466
							L4122.9,466z M4132.7,478.5l10.3,18.4h-20.8L4132.7,478.5z"/>
						<path id="path4048_1_" fill="#656968" d="M4189.2,466.1V516l53-0.1c4.6,0,13.2-4.1,13.2-13v-23.7c0-8.1-7.6-13.2-14.6-13.2
							L4189.2,466.1L4189.2,466.1z M4204.7,477.4l30,0.1c3.3,0,5.8,2.9,5.8,5.8v15.5c0,3.4-3.3,5.7-5.7,5.7h-30.1V477.4
							L4204.7,477.4z"/>
						<path id="path4053_1_" fill="#656968" d="M4277.3,466.4v49.3h15.8v-49.3H4277.3z"/>
						<path id="path4055_1_" fill="#656968" d="M4325.1,466.5c-5.5,0-9.9,5.6-9.9,12.6v26.3c0,5.2,4.4,9.7,10.5,9.7h46.7
							c5.7,0,11.1-3.9,11.1-10.4v-25.6c0-6.2-3.6-12.6-11.7-12.6H4325.1z M4335.6,477.5h25.8c4.5,0,6.5,3.5,6.5,6.9v14.1
							c0,3.6-3,5.8-6.2,5.8h-25.8c-3.4,0-5.8-2.5-5.8-5.4v-14.5C4330,480.6,4332.5,477.5,4335.6,477.5z"/>
						<path id="path4080_1_" fill="#F16824" d="M4404.3,466.3v49.4h52.3V505h-38.3c0,0,0-37.2,0-38.7
							C4415.6,466.2,4404.3,466.3,4404.3,466.3z"/>
						<path id="path4043-8_1_" fill="#F16824" d="M4501.4,466.1l-27.6,49.7h16.8l4.5-8.4h32.4l4.9,8.5h16.8l-26.9-49.9H4501.4z
							 M4511.2,478.6l10.3,18.4h-20.8L4511.2,478.6z"/>
						<path id="path4106_1_" fill="#F16824" d="M4568.1,466.4v49.5h55.8c2.7,0,8-3.3,8-8.2v-9.1c0-4.2-5.4-7.6-9.2-7.6
							c3.5,0,7.7-4.1,7.7-7.4v-7.4c0-5.4-4.5-9.8-10.5-9.8L4568.1,466.4L4568.1,466.4z M4582.9,477.6h28.5c4.5,0,3.8,9.1,0,9.1
							h-28.5V477.6z M4583.5,495.8h30.3c4.5,0,3.8,9.1,0,9.1h-30.3V495.8z"/>
					</g>
					<g id="g4184_1_" transform="matrix(1.488101,0,0,1.488101,-82.992576,413.02706)">
						<path id="path4134_1_" fill="#F16824" d="M816.9,367.6c-20.3,0-36.7,16.4-36.7,36.7c0,20.3,16.5,36.7,36.7,36.7
							c8.8,0,16.8-3.1,23.1-8.2c-3.1,1.8-6.6,2.9-10.4,2.9c-11.4,0-20.6-9.3-20.6-20.7s9.2-20.6,20.6-20.6
							c11.4,0,20.6,9.2,20.6,20.6c0,2.6-0.5,5-1.4,7.3c3-5.3,4.8-11.5,4.8-18C853.6,384,837.2,367.6,816.9,367.6z"/>
						<path id="path4134-1-2_1_" fill="#656968" d="M832.1,408.2c-5.1,0-9.3,4.2-9.3,9.3c0,4.4,3,8,7.1,9v-13.1h3.5v1.8
							c0.5-1,1.6-1.9,2.4-1.9h2.1v3.1c-1.8,0-3,0.2-3.8,1.1v9c4.1-0.9,7.2-4.6,7.2-9C841.3,412.3,837.2,408.2,832.1,408.2z"/>
					</g>
				</g>
			</g>
		</g>
	</g>
</g>
<rect x="-1.7" y="826" opacity="0.12" fill="#050606" width="946.9" height="83.3"/>
<g>
	<polygon fill="#F16824" points="61.3,868.7 53.6,868.7 61.3,868.6 61.3,868.6 61.3,868.6 28.7,850.4 28.7,868.6 28.7,868.7 
		28.7,886.9 	"/>
	<rect x="72.3" y="850.4" fill="#F16824" width="8.1" height="36.5"/>
	<rect x="84.3" y="850.4" fill="#F16824" width="8.1" height="36.5"/>
	<rect x="124.4" y="878.2" fill="#F16824" width="323.6" height="4.8"/>
	<circle fill="#656968" cx="151.5" cy="880.6" r="6.7"/>
	<path fill="#656968" d="M173.9,860.9h-44.7c-5.1,0-9.2-4.1-9.2-9.2v-1.5c0-5.1,4.1-9.2,9.2-9.2h44.7c5.1,0,9.2,4.1,9.2,9.2v1.5
		C183.1,856.8,179,860.9,173.9,860.9z"/>
	<polygon fill="#656968" points="151.5,870.4 151.5,866.5 151.5,870.4 151.6,870.4 151.6,870.4 160.8,853.8 151.6,853.8 
		151.5,853.8 142.2,853.8 	"/>
	<text transform="matrix(1 0 0 1 125.4386 854.4258)" fill="#F16824" font-family="'FiraSansOT'" font-size="11">2:34/25:42</text>
</g>
<g>
	<rect x="978.4" y="371.1" fill="none" width="337.9" height="177.3"/>
	<text transform="matrix(1 0 0 1 978.4127 382.2669)"><tspan x="0" y="0" fill="#FFFFFF" font-family="'FiraSansOT'" font-size="14.9384">Radiolab is a show about curiosity. Where sound </tspan><tspan x="0" y="17.9" fill="#FFFFFF" font-family="'FiraSansOT'" font-size="14.9384">illuminates ideas, and the boundaries blur be</tspan><tspan x="310.6" y="17.9" fill="#FFFFFF" font-family="'FiraSansOT'" font-size="14.9384">-</tspan><tspan x="0" y="35.9" fill="#FFFFFF" font-family="'FiraSansOT'" font-size="14.9384">tween science, philosophy, and human experi</tspan><tspan x="310.8" y="35.9" fill="#FFFFFF" font-family="'FiraSansOT'" font-size="14.9384">-</tspan><tspan x="0" y="53.8" fill="#FFFFFF" font-family="'FiraSansOT'" font-size="14.9384">ence.</tspan><tspan x="0" y="89.6" fill="#FFFFFF" font-family="'FiraSansOT'" font-size="14.9384">Radiolab is heard around the country on more </tspan><tspan x="0" y="107.6" fill="#FFFFFF" font-family="'FiraSansOT'" font-size="14.9384">than 450 NPR member stations. Check your local </tspan><tspan x="0" y="125.5" fill="#FFFFFF" font-family="'FiraSansOT'" font-size="14.9384">station for airtimes.</tspan></text>
</g>
<rect x="978.4" y="537.8" fill="none" width="337.9" height="94.5"/>
<text transform="matrix(1 0 0 1 978.4125 547.4643)"><tspan x="0" y="0" fill="#FFFFFF" font-family="'FiraSansOTLight'" font-size="13">Radiolab is supported, in part, by the National Science </tspan><tspan x="0" y="15.6" fill="#FFFFFF" font-family="'FiraSansOTLight'" font-size="13">Foundation and the Alfred P. Sloan Foundation, enhanc</tspan><tspan x="323.4" y="15.6" fill="#FFFFFF" font-family="'FiraSansOTLight'" font-size="13">-</tspan><tspan x="0" y="31.2" fill="#FFFFFF" font-family="'FiraSansOTLight'" font-size="13">ing public understanding of science and technology in </tspan><tspan x="0" y="46.8" fill="#FFFFFF" font-family="'FiraSansOTLight'" font-size="13">the modern world. More information about Sloan at </tspan><tspan x="0" y="62.4" fill="#FFFFFF" font-family="'FiraSansOTLight'" font-size="13">www.sloan.org.</tspan></text>
<rect x="-2.6" y="909.2" opacity="0.33" fill="#050606" width="946.5" height="41.1"/>
<g>
	<text transform="matrix(1 0 0 1 28.6616 935.7753)" fill="#FFFFFF" font-family="'FiraSansOT-Bold'" font-size="18">Play Queue </text>
</g>
<g>
	<rect x="974.5" y="642.2" opacity="0.88" fill="#F16824" width="206.2" height="63.3"/>
	<text transform="matrix(1 0 0 1 989.8019 680.3922)" fill="#FFFFFF" font-family="'FiraSansOTLight'" font-size="22">Support RadioLab</text>
</g>
<g>
	<rect x="974.5" y="733.7" opacity="0.88" fill="#F16824" width="98.4" height="63.3"/>
	<text transform="matrix(1 0 0 1 990.2679 771.8868)" fill="#FFFFFF" font-family="'FiraSansOTLight'" font-size="22">Sign In</text>
</g>
<text transform="matrix(1 0 0 1 107.6404 115.5425)" fill="#FFFFFF" font-family="'FiraSansOTLight'" font-size="46.3806">Read</text>
<g>
	<rect x="611.1" y="185.1" fill="none" width="257.5" height="21.4"/>
	
		<text transform="matrix(1 0 0 1 611.1348 200.5109)" fill="#FFFFFF" font-family="'FiraSansOTMedium'" font-size="20.4399" text-decoration=" underline">Like Watching Pitch Drop</text>
</g>
<rect x="972.4" y="255" opacity="0.25" fill="#050606" width="334.8" height="59.6"/>
<text transform="matrix(1 0 0 1 985.2684 292.64)" fill="#FFFFFF" font-family="'FiraSansOTLight'" font-size="22">Search...</text>
<g>
	<g>
		<g id="WfOPNp_5_">
			
				<image overflow="visible" width="620" height="372" id="WfOPNp_6_" xlink:href="E586038EF39D8BA2.png"  transform="matrix(0.5294 0 0 0.5294 256.0289 187.0791)">
			</image>
		</g>
	</g>
</g>
<polygon fill="#FFFFFF" points="40,97.8 48.3,97.8 40,97.9 40,98 40,98 75.3,117.6 75.3,98 75.3,97.8 75.3,78.1 "/>
<polygon fill="none" points="928.4,788.9 359.2,788.9 359.2,428.7 613,427.8 613,224.1 928.4,224.1 "/>
<text transform="matrix(1 0 0 1 613.0052 237.6076)"><tspan x="0" y="0" fill="#FFFFFF" font-family="'FiraSansOT'" font-size="18">In our Speed show, we met Professor </tspan><tspan x="0" y="21.6" fill="#FFFFFF" font-family="'FiraSansOT'" font-size="18">John Mainstone, custodian of the </tspan><tspan x="0" y="43.2" fill="#FFFFFF" font-family="'FiraSansOT'" font-size="18">Pitch Drop Experiment at the Univer</tspan><tspan x="295.2" y="43.2" fill="#FFFFFF" font-family="'FiraSansOT'" font-size="18">-</tspan><tspan x="0" y="64.8" fill="#FFFFFF" font-family="'FiraSansOT'" font-size="18">sity of Queensland. Sadly, he died </tspan><tspan x="0" y="86.4" fill="#FFFFFF" font-family="'FiraSansOT'" font-size="18">before ever getting to see his experi</tspan><tspan x="295.8" y="86.4" fill="#FFFFFF" font-family="'FiraSansOT'" font-size="18">-</tspan><tspan x="0" y="108" fill="#FFFFFF" font-family="'FiraSansOT'" font-size="18">ment&apos;s results -- he never caught a </tspan><tspan x="0" y="129.6" fill="#FFFFFF" font-family="'FiraSansOT'" font-size="18">drop dripping. But earlier this year, </tspan><tspan x="0" y="151.2" fill="#FFFFFF" font-family="'FiraSansOT'" font-size="18">the University of Queensland finally </tspan><tspan x="0" y="172.8" fill="#FFFFFF" font-family="'FiraSansOT'" font-size="18">captured the big moment on camera.</tspan><tspan x="-253.8" y="216" fill="#FFFFFF" font-family="'FiraSansOT'" font-size="18">Here&apos;s a timelapse of the previous drop (the ninth drop -- the one </tspan><tspan x="-253.8" y="237.6" fill="#FFFFFF" font-family="'FiraSansOT'" font-size="18">Professor Mainstone was hoping to catch) colliding with the other </tspan><tspan x="-253.8" y="259.2" fill="#FFFFFF" font-family="'FiraSansOT'" font-size="18">drops in the bottom of the beaker. It&apos;s not exactly the most spectac</tspan><tspan x="300.2" y="259.2" fill="#FFFFFF" font-family="'FiraSansOT'" font-size="18">-</tspan><tspan x="-253.8" y="280.8" fill="#FFFFFF" font-family="'FiraSansOT'" font-size="18">ular finale... it&apos;s more of a gentle lean than a grand drop... but, there </tspan><tspan x="-253.8" y="302.4" fill="#FFFFFF" font-family="'FiraSansOT'" font-size="18">it is:</tspan><tspan x="-253.8" y="367.2" fill="#FFFFFF" font-family="'FiraSansOT'" font-size="18">While this counts as the drop (and anyone logged into the live feed </tspan><tspan x="-253.8" y="388.8" fill="#FFFFFF" font-family="'FiraSansOT'" font-size="18">at that time had their name recorded as a witness to the big event), </tspan><tspan x="-253.8" y="410.4" fill="#FFFFFF" font-family="'FiraSansOT'" font-size="18">the University of Queensland admits: &quot;the stealthy collision is the </tspan><tspan x="-253.8" y="432" fill="#FFFFFF" font-family="'FiraSansOT'" font-size="18">latest trick by this evasive lump of tar.&quot;</tspan><tspan x="-253.8" y="475.2" fill="#FFFFFF" font-family="'FiraSansOT'" font-size="18">You can keep tabs on the evasive lump yourself -- the tenth drop is </tspan><tspan x="-253.8" y="496.8" fill="#FFFFFF" font-family="'FiraSansOT'" font-size="18">estimated to fall in the next 14 years or so -- here on the live feed:</tspan></text>
<g>
	<g>
		<g>
			<path fill="#FFFFFF" d="M306.7,452.7h-24.5c-0.8,0-1.5,0.7-1.5,1.5v24.5c0,0.8,0.7,1.5,1.5,1.5h13.2v-10.7h-3.6v-4.2h3.6v-3.1
				c0-3.6,2.2-5.5,5.4-5.5c1.5,0,2.8,0.1,3.2,0.2v3.7h-2.2c-1.7,0-2.1,0.8-2.1,2v2.7h4.1l-0.5,4.2h-3.6v10.7h7v0
				c0.8,0,1.5-0.7,1.5-1.5v-24.5C308.2,453.4,307.5,452.7,306.7,452.7z"/>
			<rect x="295.4" y="480.3" fill="#FFFFFF" width="4.3" height="0"/>
		</g>
	</g>
</g>
<g>
	<g>
		<g id="layer1_5_" transform="translate(-282.32053,-396.30734)">
			<path id="path5_2_" fill="#FFFFFF" d="M589.4,901.6c-1,0.4-2,0.7-3.1,0.9c1.1-0.7,2-1.7,2.4-3c-1,0.6-2.2,1.1-3.5,1.3
				c-1-1.1-2.4-1.7-4-1.7c-3,0-5.4,2.4-5.4,5.4c0,0.4,0,0.8,0.1,1.2c-4.5-0.2-8.5-2.4-11.2-5.7c-0.5,0.8-0.7,1.7-0.7,2.7
				c0,1.9,1,3.5,2.4,4.5c-0.9,0-1.7-0.3-2.5-0.7c0,0,0,0,0,0.1c0,2.6,1.9,4.8,4.4,5.3c-0.5,0.1-0.9,0.2-1.4,0.2c-0.3,0-0.7,0-1-0.1
				c0.7,2.2,2.7,3.7,5.1,3.8c-1.9,1.5-4.2,2.3-6.7,2.3c-0.4,0-0.9,0-1.3-0.1c2.4,1.5,5.3,2.4,8.3,2.4c10,0,15.5-8.3,15.5-15.5
				c0-0.2,0-0.5,0-0.7C587.8,903.6,588.7,902.7,589.4,901.6L589.4,901.6z"/>
		</g>
	</g>
</g>
<rect x="13" y="217.1" fill="none" width="190.8" height="47.9"/>
<text transform="matrix(1 0 0 1 13.0164 229.2022)" fill="#FFFFFF" font-family="'FiraSansOT-Bold'" font-size="16">Like Watching Pitch Drop</text>
<rect x="13" y="261" fill="none" width="190.8" height="47.9"/>
<text transform="matrix(1 0 0 1 13.0164 273.0035)"><tspan x="0" y="0" fill="#FFFFFF" font-family="'FiraSansOT'" font-size="16">Explaining The Flashlight </tspan><tspan x="0" y="19.2" fill="#FFFFFF" font-family="'FiraSansOT'" font-size="16">Sessions</tspan></text>
<rect x="13" y="384.1" fill="none" width="190.8" height="47.9"/>
<text transform="matrix(1 0 0 1 13.0164 396.0677)" fill="#FFFFFF" font-family="'FiraSansOT'" font-size="16">Musical Translations</text>
<rect x="13" y="431.1" fill="none" width="190.8" height="47.9"/>
<text transform="matrix(1 0 0 1 13.0164 443.0549)" fill="#FFFFFF" font-family="'FiraSansOT'" font-size="16">Bob Milne Rocking Out</text>
<rect x="13" y="486" fill="none" width="190.8" height="47.9"/>
<text transform="matrix(1 0 0 1 13.0164 498.0421)" fill="#FFFFFF" font-family="'FiraSansOT'" font-size="16">Radiolab en Espanol</text>
<rect x="13" y="537" fill="none" width="190.8" height="83.7"/>
<text transform="matrix(1 0 0 1 13.0164 549.0291)"><tspan x="0" y="0" fill="#FFFFFF" font-family="'FiraSansOT'" font-size="16">Getting to the Finish Line: </tspan><tspan x="0" y="19.2" fill="#FFFFFF" font-family="'FiraSansOT'" font-size="16">The (Non) Limits of One </tspan><tspan x="0" y="38.4" fill="#FFFFFF" font-family="'FiraSansOT'" font-size="16">Woman’s Endurance</tspan></text>
<rect x="13" y="620" fill="none" width="190.8" height="61.3"/>
<text transform="matrix(1 0 0 1 13.0164 632.0167)"><tspan x="0" y="0" fill="#FFFFFF" font-family="'FiraSansOT'" font-size="16">It’s a Very Tough Little </tspan><tspan x="0" y="19.2" fill="#FFFFFF" font-family="'FiraSansOT'" font-size="16">Spaceship and It Knows </tspan><tspan x="0" y="38.4" fill="#FFFFFF" font-family="'FiraSansOT'" font-size="16">What it ‘s Doing</tspan></text>
<rect x="13" y="702" fill="none" width="190.8" height="56.6"/>
<text transform="matrix(1 0 0 1 13.0164 714.003)"><tspan x="0" y="0" fill="#FFFFFF" font-family="'FiraSansOT'" font-size="16">Is That A Lark I Hear? A </tspan><tspan x="0" y="19.2" fill="#FFFFFF" font-family="'FiraSansOT'" font-size="16">Nightingale? Suprise It’s A </tspan><tspan x="0" y="38.4" fill="#FFFFFF" font-family="'FiraSansOT'" font-size="16">Bat</tspan></text>
<rect x="13" y="326.7" fill="none" width="190.8" height="47.9"/>
<text transform="matrix(1 0 0 1 13.0164 338.6522)"><tspan x="0" y="0" fill="#FFFFFF" font-family="'FiraSansOT'" font-size="16">Your Future Memories are </tspan><tspan x="0" y="19.2" fill="#FFFFFF" font-family="'FiraSansOT'" font-size="16">at stake</tspan></text>
<g>
	<defs>
		<rect id="SVGID_17_" x="0" y="765.4" width="203.8" height="15.6"/>
	</defs>
	<clipPath id="SVGID_4_">
		<use xlink:href="#SVGID_17_"  overflow="visible"/>
	</clipPath>
	<g clip-path="url(#SVGID_4_)">
		<rect x="13" y="773.9" fill="none" width="190.8" height="56.6"/>
		<text transform="matrix(1 0 0 1 13.0164 785.8868)" fill="#FFFFFF" font-family="'FiraSansOT'" font-size="16">George In New Jersey</text>
	</g>
</g>
<path opacity="0.7" fill="#FFFFFF" d="M212,237.1L212,237.1c-1.6,0-2.9-1.3-2.9-2.9v-28.1c0-1.6,1.3-2.9,2.9-2.9l0,0
	c1.6,0,2.9,1.3,2.9,2.9v28.1C214.9,235.8,213.6,237.1,212,237.1z"/>
<path opacity="0.7" fill="#FFFFFF" d="M945.9,304L945.9,304c-1.6,0-2.9-1.3-2.9-2.9v-97.9c0-1.6,1.3-2.9,2.9-2.9h0
	c1.6,0,2.9,1.3,2.9,2.9V301C948.8,302.6,947.5,304,945.9,304z"/>
<g>
	<g opacity="0.77">
		<defs>
			<rect id="SVGID_59_" x="1666.9" y="795.3" opacity="0.77" width="1361.7" height="942.4"/>
		</defs>
		<clipPath id="SVGID_6_">
			<use xlink:href="#SVGID_59_"  overflow="visible"/>
		</clipPath>
		<g clip-path="url(#SVGID_6_)">
			<g>
				<defs>
					<rect id="SVGID_61_" x="1566.5" y="791.6" width="1819.4" height="957.3"/>
				</defs>
				<clipPath id="SVGID_8_">
					<use xlink:href="#SVGID_61_"  overflow="visible"/>
				</clipPath>
				<g transform="matrix(1 0 0 1 0 0)" clip-path="url(#SVGID_8_)">
					
						<image overflow="visible" width="1920" height="1200" xlink:href="../../../../../../../Desktop/Screen Shot 2014-11-19 at 9.36.13 PM (2).png"  transform="matrix(1.1913 0 0 1.3057 1243.9674 363.7397)">
					</image>
				</g>
			</g>
		</g>
	</g>
</g>
</svg>
