<?xml version="1.0" encoding="utf-8"?>
<!-- Generator: Adobe Illustrator 18.0.0, SVG Export Plug-In . SVG Version: 6.00 Build 0)  -->
<!DOCTYPE svg PUBLIC "-//W3C//DTD SVG 1.1//EN" "http://www.w3.org/Graphics/SVG/1.1/DTD/svg11.dtd">
<svg version="1.1" id="Layer_1" xmlns="http://www.w3.org/2000/svg" xmlns:xlink="http://www.w3.org/1999/xlink" x="0px" y="0px"
	 viewBox="0 0 1360 950" enable-background="new 0 0 1360 950" xml:space="preserve">
<g>
	<defs>
		<rect id="SVGID_5_" x="-991" y="0" width="646.9" height="971.4"/>
	</defs>
	<clipPath id="SVGID_2_">
		<use xlink:href="#SVGID_5_"  overflow="visible"/>
	</clipPath>
	<g clip-path="url(#SVGID_2_)">
		<defs>
			<rect id="SVGID_7_" x="-1381.6" y="0.4" width="1381.6" height="979.7"/>
		</defs>
		<use xlink:href="#SVGID_7_"  overflow="visible" fill="#050606"/>
		<clipPath id="SVGID_4_">
			<use xlink:href="#SVGID_7_"  overflow="visible"/>
		</clipPath>
		<g id="AShzMd_5_" opacity="0.8" clip-path="url(#SVGID_4_)">
			<g>
				
					<image overflow="visible" width="620" height="372" id="AShzMd_22_" xlink:href="E57D9882398F375A.png"  transform="matrix(2.6229 0 0 2.6598 -1617.9824 -4.5337)">
				</image>
			</g>
		</g>
	</g>
</g>
<rect x="-16.6" fill="#787F7F" width="1380" height="950"/>
<g>
	<defs>
		<rect id="SVGID_9_" x="0" width="1358.8" height="950"/>
	</defs>
	<clipPath id="SVGID_6_">
		<use xlink:href="#SVGID_9_"  overflow="visible"/>
	</clipPath>
	<g id="AShzMd_9_" opacity="0.8" clip-path="url(#SVGID_6_)">
		<g>
			
				<image overflow="visible" width="620" height="372" id="AShzMd_28_" xlink:href="E57D9882398F375E.png"  transform="matrix(2.5797 0 0 2.5792 -232.4911 -4.826)">
			</image>
		</g>
	</g>
</g>
<g>
	
		<image overflow="visible" opacity="0.47" width="1551" height="1477" xlink:href="E57D9882398F3759.png"  transform="matrix(0.24 0 0 0.24 952.3013 -47.3836)">
	</image>
	<g>
		<g>
			<g>
				<g id="layer1_11_" transform="translate(0,-902.36218)">
					<g id="g4188_11_" transform="matrix(0.26326328,0,0,0.26326328,0.0080002,968.4319)">
						<path id="path4038_14_" fill="#656968" d="M4016.1,466.1v49.7h14.3v-13.1h26.8c2.3,0,4.5,2.1,4.5,3.7v9.6h15.3v-12.3
							c0-2.8-3.6-7-9.3-7.8c4.1,0,9.1-2.6,9.1-6.5v-13.7c0-3.4-4.4-9.4-8.6-9.4L4016.1,466.1z M4060,477.8c1.3,0,2.6,1.3,2.6,2.6
							v7.3c0,1.5-1.1,2.9-3,2.9H4031v-12.7L4060,477.8z"/>
						<path id="path4043_14_" fill="#656968" d="M4122.9,466l-27.6,49.7h16.8l4.5-8.4h32.4l4.9,8.5h16.8l-26.9-49.9L4122.9,466
							L4122.9,466z M4132.7,478.5l10.3,18.4h-20.8L4132.7,478.5z"/>
						<path id="path4048_14_" fill="#656968" d="M4189.2,466.1V516l53-0.1c4.6,0,13.2-4.1,13.2-13v-23.7c0-8.1-7.6-13.2-14.6-13.2
							L4189.2,466.1L4189.2,466.1z M4204.7,477.4l30,0.1c3.3,0,5.8,2.9,5.8,5.8v15.5c0,3.4-3.3,5.7-5.7,5.7h-30.1V477.4
							L4204.7,477.4z"/>
						<path id="path4053_14_" fill="#656968" d="M4277.3,466.4v49.3h15.8v-49.3H4277.3z"/>
						<path id="path4055_14_" fill="#656968" d="M4325.1,466.5c-5.5,0-9.9,5.6-9.9,12.6v26.3c0,5.2,4.4,9.7,10.5,9.7h46.7
							c5.7,0,11.1-3.9,11.1-10.4v-25.6c0-6.2-3.6-12.6-11.7-12.6H4325.1z M4335.6,477.5h25.8c4.5,0,6.5,3.5,6.5,6.9v14.1
							c0,3.6-3,5.8-6.2,5.8h-25.8c-3.4,0-5.8-2.5-5.8-5.4v-14.5C4330,480.6,4332.5,477.5,4335.6,477.5z"/>
						<path id="path4080_14_" fill="#F16824" d="M4404.3,466.3v49.4h52.3V505h-38.3c0,0,0-37.2,0-38.7
							C4415.6,466.2,4404.3,466.3,4404.3,466.3z"/>
						<path id="path4043-8_14_" fill="#F16824" d="M4501.4,466.1l-27.6,49.7h16.8l4.5-8.4h32.4l4.9,8.5h16.8l-26.9-49.9H4501.4z
							 M4511.2,478.6l10.3,18.4h-20.8L4511.2,478.6z"/>
						<path id="path4106_14_" fill="#F16824" d="M4568.1,466.4v49.5h55.8c2.7,0,8-3.3,8-8.2v-9.1c0-4.2-5.4-7.6-9.2-7.6
							c3.5,0,7.7-4.1,7.7-7.4v-7.4c0-5.4-4.5-9.8-10.5-9.8L4568.1,466.4L4568.1,466.4z M4582.9,477.6h28.5c4.5,0,3.8,9.1,0,9.1
							h-28.5V477.6z M4583.5,495.8h30.3c4.5,0,3.8,9.1,0,9.1h-30.3V495.8z"/>
					</g>
					<g id="g4184_11_" transform="matrix(1.488101,0,0,1.488101,-82.992576,413.02706)">
						<path id="path4134_14_" fill="#F16824" d="M816.9,367.6c-20.3,0-36.7,16.4-36.7,36.7c0,20.3,16.5,36.7,36.7,36.7
							c8.8,0,16.8-3.1,23.1-8.2c-3.1,1.8-6.6,2.9-10.4,2.9c-11.4,0-20.6-9.3-20.6-20.7s9.2-20.6,20.6-20.6
							c11.4,0,20.6,9.2,20.6,20.6c0,2.6-0.5,5-1.4,7.3c3-5.3,4.8-11.5,4.8-18C853.6,384,837.2,367.6,816.9,367.6z"/>
						<path id="path4134-1-2_14_" fill="#656968" d="M832.1,408.2c-5.1,0-9.3,4.2-9.3,9.3c0,4.4,3,8,7.1,9v-13.1h3.5v1.8
							c0.5-1,1.6-1.9,2.4-1.9h2.1v3.1c-1.8,0-3,0.2-3.8,1.1v9c4.1-0.9,7.2-4.6,7.2-9C841.3,412.3,837.2,408.2,832.1,408.2z"/>
					</g>
				</g>
			</g>
		</g>
	</g>
</g>
<rect x="-1.7" y="826" opacity="0.12" fill="#050606" width="946.9" height="83.3"/>
<g>
	<polygon fill="#F16824" points="61.3,868.7 53.6,868.7 61.3,868.6 61.3,868.6 61.3,868.6 28.7,850.4 28.7,868.6 28.7,868.7 
		28.7,886.9 	"/>
	<rect x="72.3" y="850.4" fill="#F16824" width="8.1" height="36.5"/>
	<rect x="84.3" y="850.4" fill="#F16824" width="8.1" height="36.5"/>
	<rect x="124.4" y="878.2" fill="#F16824" width="323.6" height="4.8"/>
	<circle fill="#656968" cx="151.5" cy="880.6" r="6.7"/>
	<path fill="#656968" d="M173.9,860.9h-44.7c-5.1,0-9.2-4.1-9.2-9.2v-1.5c0-5.1,4.1-9.2,9.2-9.2h44.7c5.1,0,9.2,4.1,9.2,9.2v1.5
		C183.1,856.8,179,860.9,173.9,860.9z"/>
	<polygon fill="#656968" points="151.5,870.4 151.5,866.5 151.5,870.4 151.6,870.4 151.6,870.4 160.8,853.8 151.6,853.8 
		151.5,853.8 142.2,853.8 	"/>
	<text transform="matrix(1 0 0 1 125.4386 854.4263)" fill="#F16824" font-family="'FiraSansOT'" font-size="11">2:34/25:42</text>
</g>
<text transform="matrix(1 0 0 1 387.6975 174.1784)" fill="#FFFFFF" font-family="'FiraSansOTMedium'" font-size="18" text-decoration=" underline">Patient Zero - Updated - Season 13 | Episode 3</text>
<rect x="630.2" y="198.3" fill="none" width="286.7" height="125.5"/>
<text transform="matrix(1 0 0 1 630.2192 209.51)"><tspan x="0" y="0" fill="#FFFFFF" font-family="'FiraSansOT'" font-size="15">The greatest mysteries have a shadowy </tspan><tspan x="0" y="18" fill="#FFFFFF" font-family="'FiraSansOT'" font-size="15">figure at the center—someone who sets </tspan><tspan x="0" y="36" fill="#FFFFFF" font-family="'FiraSansOT'" font-size="15">things in motion and holds the key to </tspan><tspan x="0" y="54" fill="#FFFFFF" font-family="'FiraSansOT'" font-size="15">how the story unfolds—Patient Zero. This </tspan><tspan x="0" y="72" fill="#FFFFFF" font-family="'FiraSansOT'" font-size="15">hour, Radiolab hunts for Patient Zeroes </tspan><tspan x="0" y="90" fill="#FFFFFF" font-family="'FiraSansOT'" font-size="15">of all kinds and considers the course of </tspan><tspan x="0" y="108" fill="#FFFFFF" font-family="'FiraSansOT'" font-size="15">an ongoing outbreak...</tspan></text>
<text transform="matrix(1 0 0 1 827.3153 338.6118)" fill="#FFFFFF" font-family="'FiraSansOT-Italic'" font-size="16" text-decoration=" underline">Read More</text>
<text transform="matrix(1 0 0 1 827.3153 558.2435)" fill="#FFFFFF" font-family="'FiraSansOT-Italic'" font-size="16" text-decoration=" underline">Read More</text>
<g>
	
		<text transform="matrix(1 0 0 1 390.1818 397.7548)" fill="#FFFFFF" font-family="'FiraSansOTMedium'" font-size="18" text-decoration=" underline">Haunted - Podcast</text>
</g>
<rect x="627.5" y="417.7" fill="none" width="290.3" height="125"/>
<text transform="matrix(1 0 0 1 627.5402 428.916)"><tspan x="0" y="0" fill="#FFFFFF" font-family="'FiraSansOT'" font-size="14.9384">The greatest mysteries have a shadowy </tspan><tspan x="0" y="17.9" fill="#FFFFFF" font-family="'FiraSansOT'" font-size="14.9384">figure at the center—someone who sets </tspan><tspan x="0" y="35.9" fill="#FFFFFF" font-family="'FiraSansOT'" font-size="14.9384">things in motion and holds the key to how </tspan><tspan x="0" y="53.8" fill="#FFFFFF" font-family="'FiraSansOT'" font-size="14.9384">the story unfolds—Patient Zero. This hour, </tspan><tspan x="0" y="71.7" fill="#FFFFFF" font-family="'FiraSansOT'" font-size="14.9384">Radiolab hunts for Patient Zeroes of all </tspan><tspan x="0" y="89.6" fill="#FFFFFF" font-family="'FiraSansOT'" font-size="14.9384">kinds and considers the course of an on</tspan><tspan x="272.1" y="89.6" fill="#FFFFFF" font-family="'FiraSansOT'" font-size="14.9384">-</tspan><tspan x="0" y="107.6" fill="#FFFFFF" font-family="'FiraSansOT'" font-size="14.9384">going outbreak...</tspan></text>
<g id="AShzMd_1_">
	
		<image overflow="visible" width="620" height="372" id="AShzMd_2_" xlink:href="E57D9882398F375B.png"  transform="matrix(0.3638 0 0 0.3638 387.6975 198.2597)">
	</image>
</g>
<g id="McQ5Lf_1_">
	
		<image overflow="visible" width="620" height="372" id="McQ5Lf_2_" xlink:href="E57D9882398F3758.png"  transform="matrix(0.347 0 0 0.347 390.1822 417.7119)">
	</image>
</g>
<g>
	<rect x="978.4" y="351.1" fill="none" width="337.9" height="177.3"/>
	<text transform="matrix(1 0 0 1 978.4127 362.267)"><tspan x="0" y="0" fill="#FFFFFF" font-family="'FiraSansOT'" font-size="14.9384">Radiolab is a show about curiosity. Where sound </tspan><tspan x="0" y="17.9" fill="#FFFFFF" font-family="'FiraSansOT'" font-size="14.9384">illuminates ideas, and the boundaries blur be</tspan><tspan x="310.6" y="17.9" fill="#FFFFFF" font-family="'FiraSansOT'" font-size="14.9384">-</tspan><tspan x="0" y="35.9" fill="#FFFFFF" font-family="'FiraSansOT'" font-size="14.9384">tween science, philosophy, and human experi</tspan><tspan x="310.8" y="35.9" fill="#FFFFFF" font-family="'FiraSansOT'" font-size="14.9384">-</tspan><tspan x="0" y="53.8" fill="#FFFFFF" font-family="'FiraSansOT'" font-size="14.9384">ence.</tspan><tspan x="0" y="89.6" fill="#FFFFFF" font-family="'FiraSansOT'" font-size="14.9384">Radiolab is heard around the country on more </tspan><tspan x="0" y="107.6" fill="#FFFFFF" font-family="'FiraSansOT'" font-size="14.9384">than 450 NPR member stations. Check your local </tspan><tspan x="0" y="125.5" fill="#FFFFFF" font-family="'FiraSansOT'" font-size="14.9384">station for airtimes.</tspan></text>
</g>
<rect x="978.4" y="517.8" fill="none" width="337.9" height="94.5"/>
<text transform="matrix(1 0 0 1 978.4125 527.4643)"><tspan x="0" y="0" fill="#FFFFFF" font-family="'FiraSansOTLight'" font-size="13">Radiolab is supported, in part, by the National Science </tspan><tspan x="0" y="15.6" fill="#FFFFFF" font-family="'FiraSansOTLight'" font-size="13">Foundation and the Alfred P. Sloan Foundation, enhanc</tspan><tspan x="323.4" y="15.6" fill="#FFFFFF" font-family="'FiraSansOTLight'" font-size="13">-</tspan><tspan x="0" y="31.2" fill="#FFFFFF" font-family="'FiraSansOTLight'" font-size="13">ing public understanding of science and technology in </tspan><tspan x="0" y="46.8" fill="#FFFFFF" font-family="'FiraSansOTLight'" font-size="13">the modern world. More information about Sloan at </tspan><tspan x="0" y="62.4" fill="#FFFFFF" font-family="'FiraSansOTLight'" font-size="13">www.sloan.org.</tspan></text>
<text transform="matrix(1 0 0 1 382.1819 85.6233)" fill="#FFFFFF" font-family="'FiraSansOTLight'" font-size="22">Newest Episodes and Podcasts</text>
<polygon fill="#F16824" points="424,306.7 418.8,306.7 424,306.6 424,306.6 424,306.6 402,294.4 402,306.6 402,306.7 402,318.9 "/>
<polygon fill="#F16824" points="468.7,303.9 459.2,303.9 459.2,294.4 453.7,294.4 453.7,303.9 444.2,303.9 444.2,309.4 453.7,309.4 
	453.7,318.9 459.2,318.9 459.2,309.4 468.7,309.4 "/>
<polygon fill="#F16824" points="424,523.8 418.8,523.8 424,523.8 424,523.7 424,523.7 402,511.5 402,523.7 402,523.8 402,536 "/>
<polygon fill="#F16824" points="468.7,521 459.2,521 459.2,511.5 453.7,511.5 453.7,521 444.2,521 444.2,526.5 453.7,526.5 
	453.7,536 459.2,536 459.2,526.5 468.7,526.5 "/>
<text transform="matrix(1 0 0 1 826.3153 790.4873)" fill="#FFFFFF" font-family="'FiraSansOT-Italic'" font-size="16" text-decoration=" underline">Read More</text>
<g>
	
		<text transform="matrix(1 0 0 1 389.1818 629.9987)" fill="#FFFFFF" font-family="'FiraSansOTMedium'" font-size="18" text-decoration=" underline">Haunted - Podcast</text>
</g>
<rect x="626.5" y="650" fill="none" width="290.3" height="125"/>
<text transform="matrix(1 0 0 1 626.5402 661.1598)"><tspan x="0" y="0" fill="#FFFFFF" font-family="'FiraSansOT'" font-size="14.9384">The greatest mysteries have a shadowy </tspan><tspan x="0" y="17.9" fill="#FFFFFF" font-family="'FiraSansOT'" font-size="14.9384">figure at the center—someone who sets </tspan><tspan x="0" y="35.9" fill="#FFFFFF" font-family="'FiraSansOT'" font-size="14.9384">things in motion and holds the key to how </tspan><tspan x="0" y="53.8" fill="#FFFFFF" font-family="'FiraSansOT'" font-size="14.9384">the story unfolds—Patient Zero. This hour, </tspan><tspan x="0" y="71.7" fill="#FFFFFF" font-family="'FiraSansOT'" font-size="14.9384">Radiolab hunts for Patient Zeroes of all </tspan><tspan x="0" y="89.6" fill="#FFFFFF" font-family="'FiraSansOT'" font-size="14.9384">kinds and considers the course of an on</tspan><tspan x="272.1" y="89.6" fill="#FFFFFF" font-family="'FiraSansOT'" font-size="14.9384">-</tspan><tspan x="0" y="107.6" fill="#FFFFFF" font-family="'FiraSansOT'" font-size="14.9384">going outbreak...</tspan></text>
<g id="McQ5Lf_5_">
	
		<image overflow="visible" width="620" height="372" id="McQ5Lf_6_" xlink:href="E57D9882398F3766.png"  transform="matrix(0.347 0 0 0.347 389.1822 649.9557)">
	</image>
</g>
<polygon fill="#F16824" points="423,756.1 417.8,756.1 423,756 423,755.9 423,755.9 401,743.7 401,755.9 401,756.1 401,768.3 "/>
<polygon fill="#F16824" points="467.7,753.3 458.2,753.3 458.2,743.7 452.7,743.7 452.7,753.3 443.2,753.3 443.2,758.7 452.7,758.7 
	452.7,768.3 458.2,768.3 458.2,758.7 467.7,758.7 "/>
<rect x="-2.6" y="909.2" opacity="0.33" fill="#050606" width="946.5" height="41.1"/>
<g>
	<text transform="matrix(1 0 0 1 28.6616 935.7753)" fill="#FFFFFF" font-family="'FiraSansOT-Bold'" font-size="18">Play Queue </text>
</g>
<g opacity="0.45">
	<defs>
		<rect id="SVGID_11_" x="0" opacity="0.45" width="358.6" height="827.3"/>
	</defs>
	<clipPath id="SVGID_8_">
		<use xlink:href="#SVGID_11_"  overflow="visible"/>
	</clipPath>
	<g clip-path="url(#SVGID_8_)">
		<g id="WfOPNp_1_">
			
				<image overflow="visible" width="620" height="372" id="WfOPNp_2_" xlink:href="E57D9882398F3769.png"  transform="matrix(0.7398 0 0 0.7398 -58.083 276.8623)">
			</image>
		</g>
		<g id="AShzMd_3_">
			
				<image overflow="visible" width="620" height="372" id="AShzMd_4_" xlink:href="E57D9882398F376A.png"  transform="matrix(0.7445 0 0 0.7445 -60.652 -0.101)">
			</image>
		</g>
		<g>
			<defs>
				<rect id="SVGID_13_" x="-60.7" y="552.1" width="457.6" height="275.2"/>
			</defs>
			<clipPath id="SVGID_10_">
				<use xlink:href="#SVGID_13_"  overflow="visible"/>
			</clipPath>
			<g id="YrtGCW_1_" clip-path="url(#SVGID_10_)">
				
					<image overflow="visible" width="200" height="161" id="YrtGCW_2_" xlink:href="E57D9882398F3768.png"  transform="matrix(2.3049 0 0 2.3049 -64.0328 504.1156)">
				</image>
			</g>
		</g>
	</g>
</g>
<g>
	<rect x="974.5" y="636.2" opacity="0.88" fill="#F16824" width="206.2" height="63.3"/>
	<text transform="matrix(1 0 0 1 989.802 674.3923)" fill="#FFFFFF" font-family="'FiraSansOTLight'" font-size="22">Support RadioLab</text>
</g>
<g>
	<rect x="974.5" y="733.7" opacity="0.88" fill="#F16824" width="98.4" height="63.3"/>
	<text transform="matrix(1 0 0 1 990.2681 771.8869)" fill="#FFFFFF" font-family="'FiraSansOTLight'" font-size="22">Sign In</text>
</g>
<g>
	<rect x="729.6" y="61" opacity="0.88" fill="#F16824" width="169.4" height="31.4"/>
	<text transform="matrix(1 0 0 1 773.8638 85.1091)" fill="#FFFFFF" font-family="'FiraSansOTLight'" font-size="22">Stations</text>
</g>
<text transform="matrix(1 0 0 1 16.3906 73.7366)" fill="#FFFFFF" font-family="'FiraSansOTLight'" font-size="64">Listen</text>
<rect x="38.9" y="136.7" fill="none" width="213.8" height="47.9"/>
<text transform="matrix(1 0 0 1 38.9471 148.7275)"><tspan x="0" y="0" fill="#FFFFFF" font-family="'FiraSansOT'" font-size="16">Patient Zero - Updated - </tspan><tspan x="0" y="19.2" fill="#FFFFFF" font-family="'FiraSansOT'" font-size="16">Season 13 | Episode 3</tspan></text>
<rect x="38.9" y="215.5" fill="none" width="213.8" height="47.9"/>
<text transform="matrix(1 0 0 1 38.9471 227.5371)"><tspan x="0" y="0" fill="#FFFFFF" font-family="'FiraSansOT'" font-size="16">Translation - Season 13 | </tspan><tspan x="0" y="19.2" fill="#FFFFFF" font-family="'FiraSansOT'" font-size="16">Episode 1</tspan></text>
<text transform="matrix(1 0 0 1 16.3906 352.1781)" fill="#FFFFFF" font-family="'FiraSansOTLight'" font-size="64">Read</text>
<rect x="38.9" y="418.1" fill="none" width="213.8" height="47.9"/>
<text transform="matrix(1 0 0 1 38.9471 430.1014)" fill="#FFFFFF" font-family="'FiraSansOT'" font-size="16">Like Watching Pitch Drop</text>
<rect x="38.9" y="444" fill="none" width="213.8" height="47.9"/>
<text transform="matrix(1 0 0 1 38.9471 456.0461)"><tspan x="0" y="0" fill="#FFFFFF" font-family="'FiraSansOT'" font-size="16">Explaining The Flashlight </tspan><tspan x="0" y="19.2" fill="#FFFFFF" font-family="'FiraSansOT'" font-size="16">Sessions</tspan></text>
<rect x="38.9" y="489.7" fill="none" width="213.8" height="47.9"/>
<text transform="matrix(1 0 0 1 38.9471 501.6951)"><tspan x="0" y="0" fill="#FFFFFF" font-family="'FiraSansOT'" font-size="16">Your Future Memories are at </tspan><tspan x="0" y="19.2" fill="#FFFFFF" font-family="'FiraSansOT'" font-size="16">stake</tspan></text>
<text transform="matrix(1 0 0 1 19.3906 634.0165)" fill="#FFFFFF" font-family="'FiraSansOTLight'" font-size="64">Watch</text>
<rect x="45.9" y="690" fill="none" width="213.8" height="23.9"/>
<text transform="matrix(1 0 0 1 45.9472 702.0079)" fill="#FFFFFF" font-family="'FiraSansOT'" font-size="16">Like Watching Pitch Drop</text>
<rect x="45.9" y="721.5" fill="none" width="213.8" height="47.9"/>
<text transform="matrix(1 0 0 1 45.9472 733.5358)" fill="#FFFFFF" font-family="'FiraSansOT'" font-size="16">Bob Milne Rocking Out</text>
<rect x="45.9" y="748.6" fill="none" width="213.8" height="70.4"/>
<text transform="matrix(1 0 0 1 45.9472 760.6016)"><tspan x="0" y="0" fill="#FFFFFF" font-family="'FiraSansOT'" font-size="16">Getting to the Finish Line: </tspan><tspan x="0" y="19.2" fill="#FFFFFF" font-family="'FiraSansOT'" font-size="16">The (non) Limits of One </tspan><tspan x="0" y="38.4" fill="#FFFFFF" font-family="'FiraSansOT'" font-size="16">Woman’s Endurance</tspan></text>
<rect x="38.9" y="186.6" fill="none" width="213.8" height="47.9"/>
<text transform="matrix(1 0 0 1 38.9471 198.6481)" fill="#FFFFFF" font-family="'FiraSansOT'" font-size="16">Haunted - Podcast</text>
<rect x="972.4" y="255" opacity="0.25" fill="#050606" width="334.8" height="59.6"/>
<text transform="matrix(1 0 0 1 985.2684 292.6399)" fill="#FFFFFF" font-family="'FiraSansOTLight'" font-size="22">Search...</text>
<g>
	<g>
		<g>
			<path fill="#FFFFFF" d="M916.4,855.7h-24.5c-0.8,0-1.5,0.7-1.5,1.5v24.5c0,0.8,0.7,1.5,1.5,1.5H905v-10.7h-3.6v-4.2h3.6v-3.1
				c0-3.6,2.2-5.5,5.4-5.5c1.5,0,2.8,0.1,3.2,0.2v3.7h-2.2c-1.7,0-2.1,0.8-2.1,2v2.7h4.1l-0.5,4.2h-3.6v10.7h7v0
				c0.8,0,1.5-0.7,1.5-1.5v-24.5C917.9,856.4,917.2,855.7,916.4,855.7z"/>
			<rect x="905" y="883.3" fill="#FFFFFF" width="4.3" height="0"/>
		</g>
	</g>
</g>
<g>
	<g>
		<g id="layer1_12_" transform="translate(-282.32053,-396.30734)">
			<path id="path5_5_" fill="#FFFFFF" d="M1144.8,1257.6c-1,0.4-2,0.7-3.1,0.9c1.1-0.7,2-1.7,2.4-3c-1,0.6-2.2,1.1-3.5,1.3
				c-1-1.1-2.4-1.7-4-1.7c-3,0-5.4,2.4-5.4,5.4c0,0.4,0,0.8,0.1,1.2c-4.5-0.2-8.5-2.4-11.2-5.7c-0.5,0.8-0.7,1.7-0.7,2.7
				c0,1.9,1,3.5,2.4,4.5c-0.9,0-1.7-0.3-2.5-0.7c0,0,0,0,0,0.1c0,2.6,1.9,4.8,4.4,5.3c-0.5,0.1-0.9,0.2-1.4,0.2c-0.3,0-0.7,0-1-0.1
				c0.7,2.2,2.7,3.7,5.1,3.8c-1.9,1.5-4.2,2.3-6.7,2.3c-0.4,0-0.9,0-1.3-0.1c2.4,1.5,5.3,2.4,8.3,2.4c10,0,15.5-8.3,15.5-15.5
				c0-0.2,0-0.5,0-0.7C1143.2,1259.6,1144.1,1258.7,1144.8,1257.6L1144.8,1257.6z"/>
		</g>
	</g>
</g>
<path opacity="0.7" fill="#FFFFFF" d="M941.2,516.6L941.2,516.6c-1.6,0-2.9-1.3-2.9-2.9V162.4c0-1.6,1.3-2.9,2.9-2.9l0,0
	c1.6,0,2.9,1.3,2.9,2.9v351.2C944.1,515.3,942.8,516.6,941.2,516.6z"/>
</svg>
