<?xml version="1.0" encoding="utf-8"?>
<!-- Generator: Adobe Illustrator 18.0.0, SVG Export Plug-In . SVG Version: 6.00 Build 0)  -->
<!DOCTYPE svg PUBLIC "-//W3C//DTD SVG 1.1//EN" "http://www.w3.org/Graphics/SVG/1.1/DTD/svg11.dtd">
<svg version="1.1" id="Layer_1" xmlns="http://www.w3.org/2000/svg" xmlns:xlink="http://www.w3.org/1999/xlink" x="0px" y="0px"
	 viewBox="0 0 647.8 969.6" enable-background="new 0 0 647.8 969.6" xml:space="preserve">
<g>
	<defs>
		<rect id="SVGID_5_" x="899.4" y="-233" width="646.9" height="971.4"/>
	</defs>
	<clipPath id="SVGID_2_">
		<use xlink:href="#SVGID_5_"  overflow="visible"/>
	</clipPath>
	<g clip-path="url(#SVGID_2_)">
		<defs>
			<rect id="SVGID_7_" x="508.7" y="-232.6" width="1381.6" height="979.7"/>
		</defs>
		<use xlink:href="#SVGID_7_"  overflow="visible" fill="#050606"/>
		<clipPath id="SVGID_4_">
			<use xlink:href="#SVGID_7_"  overflow="visible"/>
		</clipPath>
		<g id="AShzMd_5_" opacity="0.8" clip-path="url(#SVGID_4_)">
			<g>
				
					<image overflow="visible" width="620" height="372" id="AShzMd_22_" xlink:href="E59F44B521C8887E.png"  transform="matrix(2.6229 0 0 2.6598 272.362 -237.5554)">
				</image>
			</g>
		</g>
	</g>
</g>
<g>
	<defs>
		<rect id="SVGID_21_" x="899.4" y="876.9" width="646.9" height="971.4"/>
	</defs>
	<clipPath id="SVGID_6_">
		<use xlink:href="#SVGID_21_"  overflow="visible"/>
	</clipPath>
	<g clip-path="url(#SVGID_6_)">
		<defs>
			<rect id="SVGID_23_" x="508.7" y="877.3" width="1381.6" height="979.7"/>
		</defs>
		<use xlink:href="#SVGID_23_"  overflow="visible" fill="#050606"/>
		<clipPath id="SVGID_8_">
			<use xlink:href="#SVGID_23_"  overflow="visible"/>
		</clipPath>
		<g id="AShzMd_13_" opacity="0.8" clip-path="url(#SVGID_8_)">
			<g>
				
					<image overflow="visible" width="620" height="372" id="AShzMd_15_" xlink:href="E59F44B521C88882.png"  transform="matrix(2.6229 0 0 2.6598 272.362 872.3563)">
				</image>
			</g>
		</g>
	</g>
</g>
<g>
	<defs>
		<rect id="SVGID_31_" x="0" y="-0.9" width="646.9" height="971.4"/>
	</defs>
	<clipPath id="SVGID_10_">
		<use xlink:href="#SVGID_31_"  overflow="visible"/>
	</clipPath>
	<g clip-path="url(#SVGID_10_)">
		<defs>
			<rect id="SVGID_33_" x="-390.6" y="-0.4" width="1381.6" height="979.7"/>
		</defs>
		<use xlink:href="#SVGID_33_"  overflow="visible" fill="#050606"/>
		<clipPath id="SVGID_12_">
			<use xlink:href="#SVGID_33_"  overflow="visible"/>
		</clipPath>
		<g id="AShzMd_6_" opacity="0.8" clip-path="url(#SVGID_12_)">
			<g>
				
					<image overflow="visible" width="620" height="372" id="AShzMd_30_" xlink:href="E59F44B521C88885.png"  transform="matrix(2.6229 0 0 2.6598 -627.0232 -5.4068)">
				</image>
			</g>
		</g>
	</g>
</g>
<rect x="0.6" y="846.2" opacity="0.12" fill="#050606" width="647.1" height="83.3"/>
<g>
	<polygon fill="#F16824" points="64,888.9 56.3,888.9 64,888.8 64,888.8 64,888.8 31.3,870.6 31.3,888.8 31.3,888.9 31.3,907.1 	"/>
	<rect x="75" y="870.6" fill="#F16824" width="8.1" height="36.5"/>
	<rect x="87" y="870.6" fill="#F16824" width="8.1" height="36.5"/>
	<rect x="127" y="898.4" fill="#F16824" width="323.6" height="4.8"/>
	<circle fill="#656968" cx="154.2" cy="900.8" r="6.7"/>
	<path fill="#656968" d="M176.5,881.1h-44.7c-5.1,0-9.2-4.1-9.2-9.2v-1.5c0-5.1,4.1-9.2,9.2-9.2h44.7c5.1,0,9.2,4.1,9.2,9.2v1.5
		C185.8,877,181.6,881.1,176.5,881.1z"/>
	<polygon fill="#656968" points="154.1,890.6 154.1,886.7 154.2,890.6 154.2,890.6 154.2,890.6 163.5,874 154.2,874 154.1,874 
		144.9,874 	"/>
	<text transform="matrix(1 0 0 1 128.079 874.6292)" fill="#F16824" font-family="'FiraSansOT'" font-size="11">2:34/25:42</text>
</g>
<rect x="0" y="929.4" opacity="0.33" fill="#050606" width="646.9" height="41.1"/>
<g>
	<text transform="matrix(1 0 0 1 31.3019 955.9785)" fill="#FFFFFF" font-family="'FiraSansOT-Bold'" font-size="18">Play Queue </text>
</g>
<g>
	<defs>
		<rect id="SVGID_37_" x="1.6" y="5.7" width="586.5" height="841.8"/>
	</defs>
	<clipPath id="SVGID_14_">
		<use xlink:href="#SVGID_37_"  overflow="visible"/>
	</clipPath>
	<g opacity="0.45" clip-path="url(#SVGID_14_)">
		<defs>
			<rect id="SVGID_39_" x="2.6" y="5.7" opacity="0.45" width="585.5" height="1350.7"/>
		</defs>
		<clipPath id="SVGID_16_">
			<use xlink:href="#SVGID_39_"  overflow="visible"/>
		</clipPath>
		<g clip-path="url(#SVGID_16_)">
			<g id="WfOPNp_7_">
				
					<image overflow="visible" width="620" height="372" id="WfOPNp_8_" xlink:href="E59F44B521C88886.png"  transform="matrix(1.2079 0 0 1.2079 -92.2186 457.7299)">
				</image>
			</g>
			<g id="AShzMd_21_">
				
					<image overflow="visible" width="620" height="372" id="AShzMd_24_" xlink:href="E59F44B521C88884.png"  transform="matrix(1.2156 0 0 1.2156 -96.4132 5.5231)">
				</image>
			</g>
			<g>
				<defs>
					<rect id="SVGID_41_" x="-96.4" y="907.1" width="747.1" height="449.3"/>
				</defs>
				<clipPath id="SVGID_18_">
					<use xlink:href="#SVGID_41_"  overflow="visible"/>
				</clipPath>
				<g id="YrtGCW_3_" clip-path="url(#SVGID_18_)">
					
						<image overflow="visible" width="200" height="161" id="YrtGCW_4_" xlink:href="E59F44B521C88883.png"  transform="matrix(3.7633 0 0 3.7633 -101.9331 828.7738)">
					</image>
				</g>
			</g>
		</g>
	</g>
</g>
<text transform="matrix(1 0 0 1 34.9846 113.2595)" fill="#FFFFFF" font-family="'FiraSansOTLight'" font-size="97.4013">Listen</text>
<rect x="69.3" y="199.6" fill="none" width="403.7" height="72.9"/>
<text transform="matrix(1 0 0 1 69.3122 221.3628)"><tspan x="0" y="0" fill="#FFFFFF" font-family="'FiraSansOT'" font-size="29">Patient Zero - Updated - </tspan><tspan x="0" y="34.8" fill="#FFFFFF" font-family="'FiraSansOT'" font-size="29">Season 13 | Episode 3</tspan></text>
<rect x="69.3" y="367.6" fill="none" width="403.7" height="72.9"/>
<text transform="matrix(1 0 0 1 69.3122 389.3033)"><tspan x="0" y="0" fill="#FFFFFF" font-family="'FiraSansOT'" font-size="29">Translation - Season 13 | Epi</tspan><tspan x="374" y="0" fill="#FFFFFF" font-family="'FiraSansOT'" font-size="29">-</tspan><tspan x="0" y="34.8" fill="#FFFFFF" font-family="'FiraSansOT'" font-size="29">sode 1</tspan></text>
<rect x="69.3" y="296.6" fill="none" width="403.7" height="72.9"/>
<text transform="matrix(1 0 0 1 69.3122 318.3368)" fill="#FFFFFF" font-family="'FiraSansOT'" font-size="29">Haunted - Podcast</text>
<g>
	<text transform="matrix(1 0 0 1 34.9849 554.1339)" fill="#FFFFFF" font-family="'FiraSansOTLight'" font-size="97.4013">Read</text>
</g>
<g>
	<rect x="75.2" y="659.2" fill="none" width="371" height="83.1"/>
	<text transform="matrix(1 0 0 1 75.1925 680.9347)" fill="#FFFFFF" font-family="'FiraSansOT'" font-size="29">Like Watching Pitch Drop</text>
</g>
<g>
	<rect x="75.2" y="734.2" fill="none" width="371" height="83.1"/>
	<text transform="matrix(1 0 0 1 75.1925 755.9586)"><tspan x="0" y="0" fill="#FFFFFF" font-family="'FiraSansOT'" font-size="29">Explaining The Flashlight </tspan><tspan x="0" y="34.8" fill="#FFFFFF" font-family="'FiraSansOT'" font-size="29">Sessions</tspan></text>
</g>
</svg>
