<?xml version="1.0" encoding="utf-8"?>
<!-- Generator: Adobe Illustrator 18.0.0, SVG Export Plug-In . SVG Version: 6.00 Build 0)  -->
<!DOCTYPE svg PUBLIC "-//W3C//DTD SVG 1.1//EN" "http://www.w3.org/Graphics/SVG/1.1/DTD/svg11.dtd">
<svg version="1.1" id="Layer_1" xmlns="http://www.w3.org/2000/svg" xmlns:xlink="http://www.w3.org/1999/xlink" x="0px" y="0px"
	 viewBox="0 0 1360 950" enable-background="new 0 0 1360 950" xml:space="preserve">
<g>
	<rect x="-17.6" y="0" fill="#787F7F" width="1387.8" height="950"/>
	<rect x="356.6" y="0.1" fill="#FFFFFF" width="587.2" height="826.6"/>
	<g>
		<defs>
			<rect id="SVGID_45_" x="-2" y="-2.4" width="1360" height="954.9"/>
		</defs>
		<clipPath id="SVGID_2_">
			<use xlink:href="#SVGID_45_"  overflow="visible"/>
		</clipPath>
		<g id="FxMCel_1_" clip-path="url(#SVGID_2_)">
			<g>
				
					<image overflow="visible" width="620" height="372" id="FxMCel_10_" xlink:href="E5B01ACE95E53110.png"  transform="matrix(2.5774 0 0 2.5774 -135.3476 -2.4479)">
				</image>
			</g>
		</g>
	</g>
	<rect x="-1" y="182.9" opacity="0.11" fill="#FFFFFF" width="218.5" height="599.4"/>
	<g>
		
			<image overflow="visible" opacity="0.47" width="1551" height="1477" xlink:href="E5B01ACE95E53111.png"  transform="matrix(0.24 0 0 0.24 951.3013 -47.3836)">
		</image>
		<g>
			<g>
				<g>
					<g id="layer1_14_" transform="translate(0,-902.36218)">
						<g id="g4188_6_" transform="matrix(0.26326328,0,0,0.26326328,0.0080002,968.4319)">
							<path id="path4038_6_" fill="#656968" d="M4012.3,466.1v49.7h14.3v-13.1h26.8c2.3,0,4.5,2.1,4.5,3.7v9.6h15.3v-12.3
								c0-2.8-3.6-7-9.3-7.8c4.1,0,9.1-2.6,9.1-6.5v-13.7c0-3.4-4.4-9.4-8.6-9.4L4012.3,466.1z M4056.2,477.8c1.3,0,2.6,1.3,2.6,2.6
								v7.3c0,1.5-1.1,2.9-3,2.9h-28.6v-12.7L4056.2,477.8z"/>
							<path id="path4043_6_" fill="#656968" d="M4119.1,466l-27.6,49.7h16.8l4.5-8.4h32.4l4.9,8.5h16.8l-26.9-49.9L4119.1,466
								L4119.1,466z M4128.9,478.5l10.3,18.4h-20.8L4128.9,478.5z"/>
							<path id="path4048_6_" fill="#656968" d="M4185.4,466.1V516l53-0.1c4.6,0,13.2-4.1,13.2-13v-23.7c0-8.1-7.6-13.2-14.6-13.2
								L4185.4,466.1L4185.4,466.1z M4200.9,477.4l30,0.1c3.3,0,5.8,2.9,5.8,5.8v15.5c0,3.4-3.3,5.7-5.7,5.7h-30.1V477.4
								L4200.9,477.4z"/>
							<path id="path4053_6_" fill="#656968" d="M4273.5,466.4v49.3h15.8v-49.3H4273.5z"/>
							<path id="path4055_6_" fill="#656968" d="M4321.3,466.5c-5.5,0-9.9,5.6-9.9,12.6v26.3c0,5.2,4.4,9.7,10.5,9.7h46.7
								c5.7,0,11.1-3.9,11.1-10.4v-25.6c0-6.2-3.6-12.6-11.7-12.6H4321.3z M4331.8,477.5h25.8c4.5,0,6.5,3.5,6.5,6.9v14.1
								c0,3.6-3,5.8-6.2,5.8h-25.8c-3.4,0-5.8-2.5-5.8-5.4v-14.5C4326.2,480.6,4328.7,477.5,4331.8,477.5z"/>
							<path id="path4080_6_" fill="#F16824" d="M4400.5,466.3v49.4h52.3V505h-38.3c0,0,0-37.2,0-38.7
								C4411.8,466.2,4400.5,466.3,4400.5,466.3z"/>
							<path id="path4043-8_6_" fill="#F16824" d="M4497.6,466.1l-27.6,49.7h16.8l4.5-8.4h32.4l4.9,8.5h16.8l-26.9-49.9H4497.6z
								 M4507.4,478.6l10.3,18.4h-20.8L4507.4,478.6z"/>
							<path id="path4106_6_" fill="#F16824" d="M4564.3,466.4v49.5h55.8c2.7,0,8-3.3,8-8.2v-9.1c0-4.2-5.4-7.6-9.2-7.6
								c3.5,0,7.7-4.1,7.7-7.4v-7.4c0-5.4-4.5-9.8-10.5-9.8L4564.3,466.4L4564.3,466.4z M4579.1,477.6h28.5c4.5,0,3.8,9.1,0,9.1
								h-28.5V477.6z M4579.7,495.8h30.3c4.5,0,3.8,9.1,0,9.1h-30.3V495.8z"/>
						</g>
						<g id="g4184_7_" transform="matrix(1.488101,0,0,1.488101,-82.992576,413.02706)">
							<path id="path4134_7_" fill="#F16824" d="M816.3,367.6c-20.3,0-36.7,16.4-36.7,36.7S796,441,816.3,441
								c8.8,0,16.8-3.1,23.1-8.2c-3.1,1.8-6.6,2.9-10.4,2.9c-11.4,0-20.6-9.3-20.6-20.7s9.2-20.6,20.6-20.6
								c11.4,0,20.6,9.2,20.6,20.6c0,2.6-0.5,5-1.4,7.3c3-5.3,4.8-11.5,4.8-18C853,384,836.6,367.6,816.3,367.6z"/>
							<path id="path4134-1-2_7_" fill="#656968" d="M831.5,408.2c-5.1,0-9.3,4.2-9.3,9.3c0,4.4,3,8,7.1,9v-13.1h3.5v1.8
								c0.5-1,1.6-1.9,2.4-1.9h2.1v3.1c-1.8,0-3,0.2-3.8,1.1v9c4.1-0.9,7.2-4.6,7.2-9C840.7,412.3,836.6,408.2,831.5,408.2z"/>
						</g>
					</g>
				</g>
			</g>
		</g>
	</g>
	<rect x="-2.7" y="826" opacity="0.12" fill="#050606" width="946.9" height="83.3"/>
	<g>
		<polygon fill="#F16824" points="60.3,868.7 52.6,868.7 60.3,868.6 60.3,868.6 60.3,868.6 27.7,850.4 27.7,868.6 27.7,868.7 
			27.7,886.9 		"/>
		<rect x="71.3" y="850.4" fill="#F16824" width="8.1" height="36.5"/>
		<rect x="83.3" y="850.4" fill="#F16824" width="8.1" height="36.5"/>
		<rect x="123.4" y="878.2" fill="#F16824" width="323.6" height="4.8"/>
		<circle fill="#656968" cx="150.5" cy="880.6" r="6.7"/>
		<path fill="#656968" d="M172.9,860.9h-44.7c-5.1,0-9.2-4.1-9.2-9.2v-1.5c0-5.1,4.1-9.2,9.2-9.2h44.7c5.1,0,9.2,4.1,9.2,9.2v1.5
			C182.1,856.8,178,860.9,172.9,860.9z"/>
		<polygon fill="#656968" points="150.5,870.4 150.5,866.5 150.5,870.4 150.6,870.4 150.6,870.4 159.8,853.8 150.6,853.8 
			150.5,853.8 141.2,853.8 		"/>
		<text transform="matrix(1 0 0 1 124.4387 854.4265)" fill="#F16824" font-family="'FiraSansOT'" font-size="11">2:34/25:42</text>
	</g>
	<g>
		<rect x="977.4" y="371.1" fill="none" width="337.9" height="177.3"/>
		<text transform="matrix(1 0 0 1 977.413 382.267)"><tspan x="0" y="0" fill="#FFFFFF" font-family="'FiraSansOT'" font-size="14.9384">Radiolab is a show about curiosity. Where sound </tspan><tspan x="0" y="17.9" fill="#FFFFFF" font-family="'FiraSansOT'" font-size="14.9384">illuminates ideas, and the boundaries blur be</tspan><tspan x="310.6" y="17.9" fill="#FFFFFF" font-family="'FiraSansOT'" font-size="14.9384">-</tspan><tspan x="0" y="35.9" fill="#FFFFFF" font-family="'FiraSansOT'" font-size="14.9384">tween science, philosophy, and human experi</tspan><tspan x="310.8" y="35.9" fill="#FFFFFF" font-family="'FiraSansOT'" font-size="14.9384">-</tspan><tspan x="0" y="53.8" fill="#FFFFFF" font-family="'FiraSansOT'" font-size="14.9384">ence.</tspan><tspan x="0" y="89.6" fill="#FFFFFF" font-family="'FiraSansOT'" font-size="14.9384">Radiolab is heard around the country on more </tspan><tspan x="0" y="107.6" fill="#FFFFFF" font-family="'FiraSansOT'" font-size="14.9384">than 450 NPR member stations. Check your local </tspan><tspan x="0" y="125.5" fill="#FFFFFF" font-family="'FiraSansOT'" font-size="14.9384">station for airtimes.</tspan></text>
	</g>
	<rect x="977.4" y="537.8" fill="none" width="337.9" height="94.5"/>
	<text transform="matrix(1 0 0 1 977.413 547.4645)"><tspan x="0" y="0" fill="#FFFFFF" font-family="'FiraSansOTLight'" font-size="13">Radiolab is supported, in part, by the National Science </tspan><tspan x="0" y="15.6" fill="#FFFFFF" font-family="'FiraSansOTLight'" font-size="13">Foundation and the Alfred P. Sloan Foundation, enhanc</tspan><tspan x="323.4" y="15.6" fill="#FFFFFF" font-family="'FiraSansOTLight'" font-size="13">-</tspan><tspan x="0" y="31.2" fill="#FFFFFF" font-family="'FiraSansOTLight'" font-size="13">ing public understanding of science and technology in </tspan><tspan x="0" y="46.8" fill="#FFFFFF" font-family="'FiraSansOTLight'" font-size="13">the modern world. More information about Sloan at </tspan><tspan x="0" y="62.4" fill="#FFFFFF" font-family="'FiraSansOTLight'" font-size="13">www.sloan.org.</tspan></text>
	<rect x="-3.6" y="909.2" opacity="0.33" fill="#050606" width="946.5" height="41.1"/>
	<g>
		<text transform="matrix(1 0 0 1 27.6619 935.7756)" fill="#FFFFFF" font-family="'FiraSansOT-Bold'" font-size="18">Play Queue </text>
	</g>
	<g>
		<rect x="973.5" y="642.2" opacity="0.88" fill="#F16824" width="206.2" height="63.3"/>
		<text transform="matrix(1 0 0 1 988.802 680.3923)" fill="#FFFFFF" font-family="'FiraSansOTLight'" font-size="22">Support RadioLab</text>
	</g>
	<g>
		<rect x="973.5" y="733.7" opacity="0.88" fill="#F16824" width="98.4" height="63.3"/>
		<text transform="matrix(1 0 0 1 989.2681 771.8871)" fill="#FFFFFF" font-family="'FiraSansOTLight'" font-size="22">Sign In</text>
	</g>
	<text transform="matrix(1 0 0 1 88.6404 107.5427)" fill="#FFFFFF" font-family="'FiraSansOTLight'" font-size="46.3806">Listen</text>
	<g>
		<rect x="279.6" y="82.2" fill="none" width="74.4" height="28.4"/>
		<text transform="matrix(1 0 0 1 279.6415 99.5327)" fill="#FFFFFF" font-family="'FiraSansOTMedium'" font-size="23">Loops</text>
	</g>
	<rect x="971.4" y="255" opacity="0.25" fill="#050606" width="334.8" height="59.6"/>
	<text transform="matrix(1 0 0 1 984.2686 292.6398)" fill="#FFFFFF" font-family="'FiraSansOTLight'" font-size="22">Search...</text>
	<polygon fill="#FFFFFF" points="39,89.8 47.3,89.8 39,89.9 39,90 39,90 74.3,109.6 74.3,90 74.3,89.8 74.3,70.1 	"/>
	<g>
		<g>
			<g>
				<path fill="#FFFFFF" d="M312.7,187.5h-24.5c-0.8,0-1.5,0.7-1.5,1.5v24.5c0,0.8,0.7,1.5,1.5,1.5h13.2v-10.7h-3.6v-4.2h3.6v-3.1
					c0-3.6,2.2-5.5,5.4-5.5c1.5,0,2.8,0.1,3.2,0.2v3.7h-2.2c-1.7,0-2.1,0.8-2.1,2v2.7h4.1l-0.5,4.2h-3.6v10.7h7v0
					c0.8,0,1.5-0.7,1.5-1.5V189C314.2,188.2,313.5,187.5,312.7,187.5z"/>
				<rect x="301.4" y="215.1" fill="#FFFFFF" width="4.3" height="0"/>
			</g>
		</g>
	</g>
	<g>
		<g>
			<g id="layer1_13_" transform="translate(-282.32053,-396.30734)">
				<path id="path5_6_" fill="#FFFFFF" d="M595.4,634.2c-1,0.4-2,0.7-3.1,0.9c1.1-0.7,2-1.7,2.4-3c-1,0.6-2.2,1.1-3.5,1.3
					c-1-1.1-2.4-1.7-4-1.7c-3,0-5.4,2.4-5.4,5.4c0,0.4,0,0.8,0.1,1.2c-4.5-0.2-8.5-2.4-11.2-5.7c-0.5,0.8-0.7,1.7-0.7,2.7
					c0,1.9,1,3.5,2.4,4.5c-0.9,0-1.7-0.3-2.5-0.7c0,0,0,0,0,0.1c0,2.6,1.9,4.8,4.4,5.3c-0.5,0.1-0.9,0.2-1.4,0.2c-0.3,0-0.7,0-1-0.1
					c0.7,2.2,2.7,3.7,5.1,3.8c-1.9,1.5-4.2,2.3-6.7,2.3c-0.4,0-0.9,0-1.3-0.1c2.4,1.5,5.3,2.4,8.3,2.4c10,0,15.5-8.3,15.5-15.5
					c0-0.2,0-0.5,0-0.7C593.8,636.3,594.7,635.3,595.4,634.2L595.4,634.2z"/>
			</g>
		</g>
	</g>
	<rect x="12" y="217.1" fill="none" width="190.8" height="47.9"/>
	<text transform="matrix(1 0 0 1 12.0166 229.2026)" fill="#FFFFFF" font-family="'FiraSansOT-Bold'" font-size="16">Like Watching Pitch Drop</text>
	<rect x="12" y="261" fill="none" width="190.8" height="47.9"/>
	<text transform="matrix(1 0 0 1 12.0166 273.0038)"><tspan x="0" y="0" fill="#FFFFFF" font-family="'FiraSansOT'" font-size="16">Explaining The Flashlight </tspan><tspan x="0" y="19.2" fill="#FFFFFF" font-family="'FiraSansOT'" font-size="16">Sessions</tspan></text>
	<rect x="12" y="384.1" fill="none" width="190.8" height="47.9"/>
	<text transform="matrix(1 0 0 1 12.0166 396.0683)" fill="#FFFFFF" font-family="'FiraSansOT'" font-size="16">Musical Translations</text>
	<rect x="12" y="431.1" fill="none" width="190.8" height="47.9"/>
	<text transform="matrix(1 0 0 1 12.0166 443.0554)" fill="#FFFFFF" font-family="'FiraSansOT'" font-size="16">Bob Milne Rocking Out</text>
	<rect x="12" y="486" fill="none" width="190.8" height="47.9"/>
	<text transform="matrix(1 0 0 1 12.0166 498.0427)" fill="#FFFFFF" font-family="'FiraSansOT'" font-size="16">Radiolab en Espanol</text>
	<rect x="12" y="537" fill="none" width="190.8" height="83.7"/>
	<text transform="matrix(1 0 0 1 12.0166 549.0295)"><tspan x="0" y="0" fill="#FFFFFF" font-family="'FiraSansOT'" font-size="16">Getting to the Finish Line: </tspan><tspan x="0" y="19.2" fill="#FFFFFF" font-family="'FiraSansOT'" font-size="16">The (Non) Limits of One </tspan><tspan x="0" y="38.4" fill="#FFFFFF" font-family="'FiraSansOT'" font-size="16">Woman’s Endurance</tspan></text>
	<rect x="12" y="620" fill="none" width="190.8" height="61.3"/>
	<text transform="matrix(1 0 0 1 12.0166 632.017)"><tspan x="0" y="0" fill="#FFFFFF" font-family="'FiraSansOT'" font-size="16">It’s a Very Tough Little </tspan><tspan x="0" y="19.2" fill="#FFFFFF" font-family="'FiraSansOT'" font-size="16">Spaceship and It Knows </tspan><tspan x="0" y="38.4" fill="#FFFFFF" font-family="'FiraSansOT'" font-size="16">What it ‘s Doing</tspan></text>
	<rect x="12" y="702" fill="none" width="190.8" height="56.6"/>
	<text transform="matrix(1 0 0 1 12.0166 714.0034)"><tspan x="0" y="0" fill="#FFFFFF" font-family="'FiraSansOT'" font-size="16">Is That A Lark I Hear? A </tspan><tspan x="0" y="19.2" fill="#FFFFFF" font-family="'FiraSansOT'" font-size="16">Nightingale? Suprise It’s A </tspan><tspan x="0" y="38.4" fill="#FFFFFF" font-family="'FiraSansOT'" font-size="16">Bat</tspan></text>
	<rect x="12" y="326.7" fill="none" width="190.8" height="47.9"/>
	<text transform="matrix(1 0 0 1 12.0166 338.6525)"><tspan x="0" y="0" fill="#FFFFFF" font-family="'FiraSansOT'" font-size="16">Your Future Memories are </tspan><tspan x="0" y="19.2" fill="#FFFFFF" font-family="'FiraSansOT'" font-size="16">at stake</tspan></text>
	<g>
		<defs>
			<rect id="SVGID_47_" x="-1" y="765.4" width="203.8" height="15.6"/>
		</defs>
		<clipPath id="SVGID_4_">
			<use xlink:href="#SVGID_47_"  overflow="visible"/>
		</clipPath>
		<g clip-path="url(#SVGID_4_)">
			<rect x="12" y="773.9" fill="none" width="190.8" height="56.6"/>
			<text transform="matrix(1 0 0 1 12.0166 785.8871)" fill="#FFFFFF" font-family="'FiraSansOT'" font-size="16">George In New Jersey</text>
		</g>
	</g>
	<path opacity="0.7" fill="#FFFFFF" d="M211,237.1L211,237.1c-1.6,0-2.9-1.3-2.9-2.9v-28.1c0-1.6,1.3-2.9,2.9-2.9l0,0
		c1.6,0,2.9,1.3,2.9,2.9v28.1C213.9,235.8,212.6,237.1,211,237.1z"/>
	<path opacity="0.7" fill="#FFFFFF" d="M944.9,773.8L944.9,773.8c-1.6,0-2.9-1.3-2.9-2.9V351.8c0-1.6,1.3-2.9,2.9-2.9h0
		c1.6,0,2.9,1.3,2.9,2.9v419.1C947.8,772.5,946.5,773.8,944.9,773.8z"/>
	<g>
		<defs>
			<rect id="SVGID_49_" x="279.6" y="398.5" width="635.1" height="343.4"/>
		</defs>
		<clipPath id="SVGID_6_">
			<use xlink:href="#SVGID_49_"  overflow="visible"/>
		</clipPath>
		<g clip-path="url(#SVGID_6_)">
			
				<image overflow="visible" width="1920" height="1200" xlink:href="../../../../../../../Desktop/Screen Shot 2014-11-19 at 9.21.57 PM (2).png"  transform="matrix(0.5688 0 0 0.5688 124.9634 139.3757)">
			</image>
		</g>
	</g>
	<g>
		<rect x="357.1" y="185.1" fill="none" width="570.4" height="204.2"/>
		<text transform="matrix(1 0 0 1 357.0591 198.5927)"><tspan x="0" y="0" fill="#FFFFFF" font-family="'FiraSansOT'" font-size="18">who got to watch herself think the thought that she was watching </tspan><tspan x="0" y="21.6" fill="#FFFFFF" font-family="'FiraSansOT'" font-size="18">herself think the thought that she was watching herself think the </tspan><tspan x="0" y="43.2" fill="#FFFFFF" font-family="'FiraSansOT'" font-size="18">thought that ... you get the point.</tspan><tspan x="0" y="86.4" fill="#FFFFFF" font-family="'FiraSansOT'" font-size="18">All that plus mind-bending musical accompaniment from Laguardia </tspan><tspan x="0" y="108" fill="#FFFFFF" font-family="'FiraSansOT'" font-size="18">Arts High School singers Nathaniel Sabat, Julian Soto, Eli Greenhoe, </tspan><tspan x="0" y="129.6" fill="#FFFFFF" font-family="'FiraSansOT'" font-size="18">Kelly Efthimiu, Julia Egan, and Ruby Froom.</tspan></text>
	</g>
</g>
<g>
	<g opacity="0.77">
		<defs>
			<rect id="SVGID_59_" x="-3.6" y="1152.1" opacity="0.77" width="1361.7" height="942.4"/>
		</defs>
		<clipPath id="SVGID_8_">
			<use xlink:href="#SVGID_59_"  overflow="visible"/>
		</clipPath>
		<g clip-path="url(#SVGID_8_)">
			<g>
				<defs>
					<rect id="SVGID_61_" x="-104" y="1148.4" width="1819.4" height="957.3"/>
				</defs>
				<clipPath id="SVGID_10_">
					<use xlink:href="#SVGID_61_"  overflow="visible"/>
				</clipPath>
				<g transform="matrix(1 0 0 1 3.051758e-05 -6.103516e-05)" clip-path="url(#SVGID_10_)">
					
						<image overflow="visible" width="1920" height="1200" xlink:href="../../../../../../../Desktop/Screen Shot 2014-11-19 at 9.36.13 PM (2).png"  transform="matrix(1.1913 0 0 1.3057 -426.5135 720.5353)">
					</image>
				</g>
			</g>
		</g>
	</g>
</g>
<g>
	<g opacity="0.77">
		<defs>
			<rect id="SVGID_69_" x="1724.3" y="11.5" opacity="0.77" width="1361.7" height="942.4"/>
		</defs>
		<clipPath id="SVGID_12_">
			<use xlink:href="#SVGID_69_"  overflow="visible"/>
		</clipPath>
		<g clip-path="url(#SVGID_12_)">
			<g>
				<defs>
					<rect id="SVGID_71_" x="1623.9" y="7.8" width="1819.4" height="957.3"/>
				</defs>
				<clipPath id="SVGID_14_">
					<use xlink:href="#SVGID_71_"  overflow="visible"/>
				</clipPath>
				<g transform="matrix(1 0 0 1 0 0)" clip-path="url(#SVGID_14_)">
					
						<image overflow="visible" width="1920" height="1200" xlink:href="../../../../../../../Desktop/Screen Shot 2014-11-19 at 9.36.13 PM (2).png"  transform="matrix(1.1913 0 0 1.3057 1301.4272 -420.0553)">
					</image>
				</g>
			</g>
		</g>
	</g>
	<g>
		<defs>
			<rect id="SVGID_73_" x="1639.2" y="850.4" width="1390.1" height="300.7"/>
		</defs>
		<clipPath id="SVGID_16_">
			<use xlink:href="#SVGID_73_"  overflow="visible"/>
		</clipPath>
		<g clip-path="url(#SVGID_16_)">
			<g>
				<defs>
					<rect id="SVGID_75_" x="2680.8" y="859.9" width="348.5" height="707.1"/>
				</defs>
				<clipPath id="SVGID_18_">
					<use xlink:href="#SVGID_75_"  overflow="visible"/>
				</clipPath>
				<g transform="matrix(1 0 0 1 0 0)" clip-path="url(#SVGID_18_)">
					
						<image overflow="visible" width="1920" height="1200" xlink:href="../../../../../../../Desktop/Screen Shot 2014-11-19 at 10.20.08 PM (2).png"  transform="matrix(0.9362 0 0 0.9362 1353.0948 573.7269)">
					</image>
				</g>
			</g>
			<g>
				<defs>
					<rect id="SVGID_77_" x="2337" y="859.9" width="348.5" height="707.1"/>
				</defs>
				<clipPath id="SVGID_20_">
					<use xlink:href="#SVGID_77_"  overflow="visible"/>
				</clipPath>
				<g transform="matrix(1 0 0 1 0 0)" clip-path="url(#SVGID_20_)">
					
						<image overflow="visible" width="1920" height="1200" xlink:href="../../../../../../../Desktop/Screen Shot 2014-11-19 at 10.20.08 PM (2).png"  transform="matrix(0.9362 0 0 0.9362 1009.2845 573.7269)">
					</image>
				</g>
			</g>
			<g>
				<defs>
					<rect id="SVGID_79_" x="1993.2" y="859.9" width="348.5" height="707.1"/>
				</defs>
				<clipPath id="SVGID_22_">
					<use xlink:href="#SVGID_79_"  overflow="visible"/>
				</clipPath>
				<g transform="matrix(1 0 0 1 0 0)" clip-path="url(#SVGID_22_)">
					
						<image overflow="visible" width="1920" height="1200" xlink:href="../../../../../../../Desktop/Screen Shot 2014-11-19 at 10.20.08 PM (2).png"  transform="matrix(0.9362 0 0 0.9362 665.4742 573.7269)">
					</image>
				</g>
			</g>
			<g>
				<defs>
					<rect id="SVGID_81_" x="1649.4" y="859.9" width="348.5" height="707.1"/>
				</defs>
				<clipPath id="SVGID_24_">
					<use xlink:href="#SVGID_81_"  overflow="visible"/>
				</clipPath>
				<g transform="matrix(1 0 0 1 0 0)" clip-path="url(#SVGID_24_)">
					
						<image overflow="visible" width="1920" height="1200" xlink:href="../../../../../../../Desktop/Screen Shot 2014-11-19 at 10.20.08 PM (2).png"  transform="matrix(0.9362 0 0 0.9362 321.6639 573.7269)">
					</image>
				</g>
			</g>
		</g>
	</g>
	<g>
		<defs>
			<rect id="SVGID_83_" x="2661.3" y="-547.4" width="348.5" height="707.1"/>
		</defs>
		<clipPath id="SVGID_26_">
			<use xlink:href="#SVGID_83_"  overflow="visible"/>
		</clipPath>
		<g transform="matrix(1 0 0 1 0 0)" clip-path="url(#SVGID_26_)">
			
				<image overflow="visible" width="1920" height="1200" xlink:href="../../../../../../../Desktop/Screen Shot 2014-11-19 at 10.20.08 PM (2).png"  transform="matrix(0.9362 0 0 0.9362 1333.5597 -833.5835)">
			</image>
		</g>
	</g>
	<g>
		<defs>
			<rect id="SVGID_85_" x="2322.3" y="-547.4" width="348.5" height="707.1"/>
		</defs>
		<clipPath id="SVGID_28_">
			<use xlink:href="#SVGID_85_"  overflow="visible"/>
		</clipPath>
		<g transform="matrix(1 0 0 1 0 0)" clip-path="url(#SVGID_28_)">
			
				<image overflow="visible" width="1920" height="1200" xlink:href="../../../../../../../Desktop/Screen Shot 2014-11-19 at 10.20.08 PM (2).png"  transform="matrix(0.9362 0 0 0.9362 994.6191 -833.5835)">
			</image>
		</g>
	</g>
	<g>
		<defs>
			<rect id="SVGID_87_" x="1973.8" y="-547.4" width="348.5" height="707.1"/>
		</defs>
		<clipPath id="SVGID_30_">
			<use xlink:href="#SVGID_87_"  overflow="visible"/>
		</clipPath>
		<g transform="matrix(1 0 0 1 0 0)" clip-path="url(#SVGID_30_)">
			
				<image overflow="visible" width="1920" height="1200" xlink:href="../../../../../../../Desktop/Screen Shot 2014-11-19 at 10.20.08 PM (2).png"  transform="matrix(0.9362 0 0 0.9362 646.0877 -833.5834)">
			</image>
		</g>
	</g>
	<g>
		<defs>
			<rect id="SVGID_89_" x="1625.3" y="-547.4" width="348.5" height="707.1"/>
		</defs>
		<clipPath id="SVGID_32_">
			<use xlink:href="#SVGID_89_"  overflow="visible"/>
		</clipPath>
		<g transform="matrix(1 0 0 1 0 0)" clip-path="url(#SVGID_32_)">
			
				<image overflow="visible" width="1920" height="1200" xlink:href="../../../../../../../Desktop/Screen Shot 2014-11-19 at 10.20.08 PM (2).png"  transform="matrix(0.9362 0 0 0.9362 297.5562 -833.5834)">
			</image>
		</g>
	</g>
	<g>
		<defs>
			<rect id="SVGID_91_" x="1607.4" y="155.7" width="1399.8" height="705.2"/>
		</defs>
		<clipPath id="SVGID_34_">
			<use xlink:href="#SVGID_91_"  overflow="visible"/>
		</clipPath>
		<g transform="matrix(1 0 0 1 0 0)" clip-path="url(#SVGID_34_)">
			
				<image overflow="visible" width="1920" height="1200" xlink:href="../../../../../../../Desktop/Screen Shot 2014-11-19 at 10.20.08 PM (2).png"  transform="matrix(0.9362 0 0 0.9362 1330.8862 -132.3882)">
			</image>
		</g>
	</g>
</g>
</svg>
