<?xml version="1.0" encoding="utf-8"?>
<!-- Generator: Adobe Illustrator 18.0.0, SVG Export Plug-In . SVG Version: 6.00 Build 0)  -->
<!DOCTYPE svg PUBLIC "-//W3C//DTD SVG 1.1//EN" "http://www.w3.org/Graphics/SVG/1.1/DTD/svg11.dtd">
<svg version="1.1" id="Layer_1" xmlns="http://www.w3.org/2000/svg" xmlns:xlink="http://www.w3.org/1999/xlink" x="0px" y="0px"
	 viewBox="0 0 1360 950" enable-background="new 0 0 1360 950" xml:space="preserve">
<g>
	<rect x="-17.6" y="0" fill="#4C4C4D" width="1387.8" height="950"/>
	<g opacity="0.55">
		<defs>
			<rect id="SVGID_51_" x="0" y="-1.2" opacity="0.55" width="1358" height="952.4"/>
		</defs>
		<clipPath id="SVGID_2_">
			<use xlink:href="#SVGID_51_"  overflow="visible"/>
		</clipPath>
		<g clip-path="url(#SVGID_2_)">
			<g>
				<defs>
					<rect id="SVGID_53_" x="-270" y="-5.1" width="1648.6" height="958.1"/>
				</defs>
				<clipPath id="SVGID_4_">
					<use xlink:href="#SVGID_53_"  overflow="visible"/>
				</clipPath>
				<g clip-path="url(#SVGID_4_)">
					
						<image overflow="visible" width="1920" height="1200" xlink:href="../../../../../../../Desktop/Screen Shot 2014-11-19 at 10.37.21 PM (2).png"  transform="matrix(1.3311 0 0 1.3311 -660.0635 -413.7056)">
					</image>
				</g>
			</g>
		</g>
	</g>
	<rect x="-1" y="182.9" opacity="0.11" fill="#FFFFFF" width="218.5" height="599.4"/>
	<g>
		
			<image overflow="visible" opacity="0.47" width="1381" height="1315" xlink:href="E67A2400073D17E8.png"  transform="matrix(0.24 0 0 0.24 971.7202 -66.9422)">
		</image>
		<g>
			<g>
				<g>
					<g id="layer1_33_" transform="translate(0,-902.36218)">
						<g id="g4188_22_" transform="matrix(0.26326328,0,0,0.26326328,0.0080002,968.4319)">
							<path id="path4038_25_" fill="#656968" d="M4046.1,293.3v44.2h12.7v-11.6h23.8c2,0,4,1.9,4,3.3v8.6h13.6v-10.9
								c0-2.5-3.2-6.3-8.3-6.9c3.7,0,8.1-2.3,8.1-5.8v-12.2c0-3-3.9-8.4-7.6-8.4L4046.1,293.3z M4085.2,303.7c1.2,0,2.3,1.1,2.3,2.3
								v6.5c0,1.4-1,2.6-2.7,2.6h-25.5v-11.3L4085.2,303.7z"/>
							<path id="path4043_25_" fill="#656968" d="M4141.2,293.2l-24.6,44.3h14.9l4-7.4h28.8l4.4,7.6h14.9l-23.9-44.4L4141.2,293.2
								L4141.2,293.2z M4149.9,304.4l9.1,16.4h-18.5L4149.9,304.4z"/>
							<path id="path4048_25_" fill="#656968" d="M4200.2,293.4v44.4l47.2-0.1c4.1,0,11.8-3.6,11.8-11.5v-21.1
								c0-7.2-6.8-11.7-13-11.7L4200.2,293.4L4200.2,293.4z M4214,303.4l26.7,0.1c3,0,5.2,2.6,5.2,5.2v13.8c0,3.1-3,5.1-5.1,5.1
								H4214V303.4L4214,303.4z"/>
							<path id="path4053_25_" fill="#656968" d="M4278.6,293.6v43.9h14v-43.9H4278.6z"/>
							<path id="path4055_25_" fill="#656968" d="M4321.2,293.7c-4.9,0-8.8,5-8.8,11.2v23.4c0,4.7,3.9,8.6,9.4,8.6h41.6
								c5.1,0,9.9-3.5,9.9-9.3v-22.8c0-5.5-3.2-11.2-10.4-11.2H4321.2z M4330.5,303.5h23c4,0,5.8,3.1,5.8,6.2v12.6
								c0,3.2-2.7,5.1-5.5,5.1h-23c-3,0-5.2-2.2-5.2-4.8v-12.9C4325.6,306.3,4327.8,303.5,4330.5,303.5z"/>
							<path id="path4080_25_" fill="#F16824" d="M4391.7,293.5v44h46.6V328h-34.1c0,0,0-33.1,0-34.5
								C4401.8,293.5,4391.7,293.5,4391.7,293.5z"/>
							<path id="path4043-8_25_" fill="#F16824" d="M4478.1,293.3l-24.6,44.3h14.9l4-7.4h28.8l4.4,7.6h14.9l-23.9-44.4H4478.1z
								 M4486.9,304.5l9.1,16.4h-18.5L4486.9,304.5z"/>
							<path id="path4106_25_" fill="#F16824" d="M4537.5,293.7v44h49.7c2.4,0,7.1-3,7.1-7.3v-8.1c0-3.7-4.9-6.8-8.2-6.8
								c3.1,0,6.8-3.6,6.8-6.6v-6.6c0-4.8-4-8.7-9.4-8.7L4537.5,293.7L4537.5,293.7z M4550.7,303.6h25.4c4,0,3.4,8.1,0,8.1h-25.4
								V303.6z M4551.2,319.8h26.9c4,0,3.4,8.1,0,8.1h-26.9V319.8z"/>
						</g>
						<g id="g4184_24_" transform="matrix(1.488101,0,0,1.488101,-82.992576,413.02706)">
							<path id="path4134_27_" fill="#F16824" d="M816.7,346.7c-18.1,0-32.7,14.6-32.7,32.7c0,18.1,14.7,32.7,32.7,32.7
								c7.8,0,14.9-2.7,20.5-7.3c-2.7,1.6-5.9,2.5-9.3,2.5c-10.2,0-18.4-8.2-18.4-18.4s8.2-18.4,18.4-18.4
								c10.2,0,18.4,8.2,18.4,18.4c0,2.3-0.5,4.5-1.2,6.5c2.7-4.7,4.2-10.2,4.2-16.1C849.4,361.3,834.7,346.7,816.7,346.7z"/>
							<path id="path4134-1-2_27_" fill="#656968" d="M830.2,382.8c-4.5,0-8.2,3.7-8.2,8.2c0,3.9,2.7,7.1,6.3,8v-11.7h3.1v1.6
								c0.4-0.9,1.5-1.7,2.1-1.7h1.8v2.8c-1.6,0-2.6,0.2-3.4,1v8c3.7-0.8,6.4-4.1,6.4-8C838.4,386.5,834.7,382.8,830.2,382.8z"/>
						</g>
					</g>
				</g>
			</g>
		</g>
	</g>
	<rect x="-2.3" y="826" opacity="0.12" fill="#050606" width="1362.3" height="83.3"/>
	<g>
		<polygon fill="#F16824" points="60.3,868.7 52.6,868.7 60.3,868.6 60.3,868.6 60.3,868.6 27.7,850.4 27.7,868.6 27.7,868.7 
			27.7,886.9 		"/>
		<rect x="71.3" y="850.4" fill="#F16824" width="8.1" height="36.5"/>
		<rect x="83.3" y="850.4" fill="#F16824" width="8.1" height="36.5"/>
		<rect x="123.4" y="878.2" fill="#F16824" width="323.6" height="4.8"/>
		<circle fill="#656968" cx="150.5" cy="880.6" r="6.7"/>
		<path fill="#656968" d="M172.9,860.9h-44.7c-5.1,0-9.2-4.1-9.2-9.2v-1.5c0-5.1,4.1-9.2,9.2-9.2h44.7c5.1,0,9.2,4.1,9.2,9.2v1.5
			C182.1,856.8,178,860.9,172.9,860.9z"/>
		<polygon fill="#656968" points="150.5,870.4 150.5,866.5 150.5,870.4 150.6,870.4 150.6,870.4 159.8,853.8 150.6,853.8 
			150.5,853.8 141.2,853.8 		"/>
		<text transform="matrix(1 0 0 1 124.4388 854.4264)" fill="#F16824" font-family="'FiraSansOT'" font-size="11">2:34/25:42</text>
	</g>
	<g>
		<rect x="977.4" y="371.1" fill="none" width="337.9" height="177.3"/>
		<text transform="matrix(1 0 0 1 977.4129 382.267)"><tspan x="0" y="0" fill="#FFFFFF" font-family="'FiraSansOT'" font-size="14.9384">Radiolab is a show about curiosity. Where sound </tspan><tspan x="0" y="17.9" fill="#FFFFFF" font-family="'FiraSansOT'" font-size="14.9384">illuminates ideas, and the boundaries blur be</tspan><tspan x="310.6" y="17.9" fill="#FFFFFF" font-family="'FiraSansOT'" font-size="14.9384">-</tspan><tspan x="0" y="35.9" fill="#FFFFFF" font-family="'FiraSansOT'" font-size="14.9384">tween science, philosophy, and human experi</tspan><tspan x="310.8" y="35.9" fill="#FFFFFF" font-family="'FiraSansOT'" font-size="14.9384">-</tspan><tspan x="0" y="53.8" fill="#FFFFFF" font-family="'FiraSansOT'" font-size="14.9384">ence.</tspan><tspan x="0" y="89.6" fill="#FFFFFF" font-family="'FiraSansOT'" font-size="14.9384">Radiolab is heard around the country on more </tspan><tspan x="0" y="107.6" fill="#FFFFFF" font-family="'FiraSansOT'" font-size="14.9384">than 450 NPR member stations. Check your local </tspan><tspan x="0" y="125.5" fill="#FFFFFF" font-family="'FiraSansOT'" font-size="14.9384">station for airtimes.</tspan></text>
	</g>
	<rect x="977.4" y="537.8" fill="none" width="337.9" height="94.5"/>
	<text transform="matrix(1 0 0 1 977.4129 547.4645)"><tspan x="0" y="0" fill="#FFFFFF" font-family="'FiraSansOTLight'" font-size="13">Radiolab is supported, in part, by the National Science </tspan><tspan x="0" y="15.6" fill="#FFFFFF" font-family="'FiraSansOTLight'" font-size="13">Foundation and the Alfred P. Sloan Foundation, enhanc</tspan><tspan x="323.4" y="15.6" fill="#FFFFFF" font-family="'FiraSansOTLight'" font-size="13">-</tspan><tspan x="0" y="31.2" fill="#FFFFFF" font-family="'FiraSansOTLight'" font-size="13">ing public understanding of science and technology in </tspan><tspan x="0" y="46.8" fill="#FFFFFF" font-family="'FiraSansOTLight'" font-size="13">the modern world. More information about Sloan at </tspan><tspan x="0" y="62.4" fill="#FFFFFF" font-family="'FiraSansOTLight'" font-size="13">www.sloan.org.</tspan></text>
	<rect x="-3.6" y="909.2" opacity="0.33" fill="#050606" width="1361.8" height="41.1"/>
	<g>
		<text transform="matrix(1 0 0 1 27.6619 935.7755)" fill="#FFFFFF" font-family="'FiraSansOT-Bold'" font-size="18">Play Queue </text>
	</g>
	<g>
		<rect x="973.5" y="642.2" opacity="0.88" fill="#F16824" width="206.2" height="63.3"/>
		<text transform="matrix(1 0 0 1 988.8021 680.3922)" fill="#FFFFFF" font-family="'FiraSansOTLight'" font-size="22">Support RadioLab</text>
	</g>
	<text transform="matrix(1 0 0 1 88.6404 107.5426)" fill="#FFFFFF" font-family="'FiraSansOTLight'" font-size="46.3806">Listen</text>
	<g>
		<rect x="279.6" y="82.2" fill="none" width="240.7" height="28.4"/>
		<text transform="matrix(1 0 0 1 279.6405 99.5316)" fill="#FFFFFF" font-family="'FiraSansOTMedium'" font-size="23">John Luther Adams</text>
	</g>
	<rect x="971.4" y="255" opacity="0.25" fill="#050606" width="334.8" height="59.6"/>
	<text transform="matrix(1 0 0 1 984.2686 292.6398)" fill="#FFFFFF" font-family="'FiraSansOTLight'" font-size="22">Search...</text>
	<polygon fill="#FFFFFF" points="39,89.8 47.3,89.8 39,89.9 39,90 39,90 74.3,109.6 74.3,90 74.3,89.8 74.3,70.1 	"/>
	<g>
		<g>
			<g>
				<path fill="#FFFFFF" d="M312.7,187.5h-24.5c-0.8,0-1.5,0.7-1.5,1.5v24.5c0,0.8,0.7,1.5,1.5,1.5h13.2v-10.7h-3.6v-4.2h3.6v-3.1
					c0-3.6,2.2-5.5,5.4-5.5c1.5,0,2.8,0.1,3.2,0.2v3.7h-2.2c-1.7,0-2.1,0.8-2.1,2v2.7h4.1l-0.5,4.2h-3.6v10.7h7v0
					c0.8,0,1.5-0.7,1.5-1.5V189C314.2,188.2,313.5,187.5,312.7,187.5z"/>
				<rect x="301.4" y="215.1" fill="#FFFFFF" width="4.3" height="0"/>
			</g>
		</g>
	</g>
	<g>
		<g>
			<g id="layer1_22_" transform="translate(-282.32053,-396.30734)">
				<path id="path5_9_" fill="#FFFFFF" d="M595.4,634.2c-1,0.4-2,0.7-3.1,0.9c1.1-0.7,2-1.7,2.4-3c-1,0.6-2.2,1.1-3.5,1.3
					c-1-1.1-2.4-1.7-4-1.7c-3,0-5.4,2.4-5.4,5.4c0,0.4,0,0.8,0.1,1.2c-4.5-0.2-8.5-2.4-11.2-5.7c-0.5,0.8-0.7,1.7-0.7,2.7
					c0,1.9,1,3.5,2.4,4.5c-0.9,0-1.7-0.3-2.5-0.7c0,0,0,0,0,0.1c0,2.6,1.9,4.8,4.4,5.3c-0.5,0.1-0.9,0.2-1.4,0.2c-0.3,0-0.7,0-1-0.1
					c0.7,2.2,2.7,3.7,5.1,3.8c-1.9,1.5-4.2,2.3-6.7,2.3c-0.4,0-0.9,0-1.3-0.1c2.4,1.5,5.3,2.4,8.3,2.4c10,0,15.5-8.3,15.5-15.5
					c0-0.2,0-0.5,0-0.7C593.8,636.3,594.7,635.3,595.4,634.2L595.4,634.2z"/>
			</g>
		</g>
	</g>
	<rect x="12" y="217.1" fill="none" width="190.8" height="47.9"/>
	<text transform="matrix(1 0 0 1 12.0166 229.2025)" fill="#FFFFFF" font-family="'FiraSansOT-Bold'" font-size="16">Like Watching Pitch Drop</text>
	<rect x="12" y="261" fill="none" width="190.8" height="47.9"/>
	<text transform="matrix(1 0 0 1 12.0166 273.0038)"><tspan x="0" y="0" fill="#FFFFFF" font-family="'FiraSansOT'" font-size="16">Explaining The Flashlight </tspan><tspan x="0" y="19.2" fill="#FFFFFF" font-family="'FiraSansOT'" font-size="16">Sessions</tspan></text>
	<rect x="12" y="384.1" fill="none" width="190.8" height="47.9"/>
	<text transform="matrix(1 0 0 1 12.0166 396.0683)" fill="#FFFFFF" font-family="'FiraSansOT'" font-size="16">Musical Translations</text>
	<rect x="12" y="431.1" fill="none" width="190.8" height="47.9"/>
	<text transform="matrix(1 0 0 1 12.0166 443.0553)" fill="#FFFFFF" font-family="'FiraSansOT'" font-size="16">Bob Milne Rocking Out</text>
	<rect x="12" y="486" fill="none" width="190.8" height="47.9"/>
	<text transform="matrix(1 0 0 1 12.0166 498.0426)" fill="#FFFFFF" font-family="'FiraSansOT'" font-size="16">Radiolab en Espanol</text>
	<rect x="12" y="537" fill="none" width="190.8" height="83.7"/>
	<text transform="matrix(1 0 0 1 12.0166 549.0294)"><tspan x="0" y="0" fill="#FFFFFF" font-family="'FiraSansOT'" font-size="16">Getting to the Finish Line: </tspan><tspan x="0" y="19.2" fill="#FFFFFF" font-family="'FiraSansOT'" font-size="16">The (Non) Limits of One </tspan><tspan x="0" y="38.4" fill="#FFFFFF" font-family="'FiraSansOT'" font-size="16">Woman’s Endurance</tspan></text>
	<rect x="12" y="620" fill="none" width="190.8" height="61.3"/>
	<text transform="matrix(1 0 0 1 12.0166 632.017)"><tspan x="0" y="0" fill="#FFFFFF" font-family="'FiraSansOT'" font-size="16">It’s a Very Tough Little </tspan><tspan x="0" y="19.2" fill="#FFFFFF" font-family="'FiraSansOT'" font-size="16">Spaceship and It Knows </tspan><tspan x="0" y="38.4" fill="#FFFFFF" font-family="'FiraSansOT'" font-size="16">What it ‘s Doing</tspan></text>
	<rect x="12" y="702" fill="none" width="190.8" height="56.6"/>
	<text transform="matrix(1 0 0 1 12.0166 714.0033)"><tspan x="0" y="0" fill="#FFFFFF" font-family="'FiraSansOT'" font-size="16">Is That A Lark I Hear? A </tspan><tspan x="0" y="19.2" fill="#FFFFFF" font-family="'FiraSansOT'" font-size="16">Nightingale? Suprise It’s A </tspan><tspan x="0" y="38.4" fill="#FFFFFF" font-family="'FiraSansOT'" font-size="16">Bat</tspan></text>
	<rect x="12" y="326.7" fill="none" width="190.8" height="47.9"/>
	<text transform="matrix(1 0 0 1 12.0166 338.6525)"><tspan x="0" y="0" fill="#FFFFFF" font-family="'FiraSansOT'" font-size="16">Your Future Memories are </tspan><tspan x="0" y="19.2" fill="#FFFFFF" font-family="'FiraSansOT'" font-size="16">at stake</tspan></text>
	<g>
		<defs>
			<rect id="SVGID_55_" x="-1" y="765.4" width="203.8" height="15.6"/>
		</defs>
		<clipPath id="SVGID_6_">
			<use xlink:href="#SVGID_55_"  overflow="visible"/>
		</clipPath>
		<g clip-path="url(#SVGID_6_)">
			<rect x="12" y="773.9" fill="none" width="190.8" height="56.6"/>
			<text transform="matrix(1 0 0 1 12.0166 785.8871)" fill="#FFFFFF" font-family="'FiraSansOT'" font-size="16">George In New Jersey</text>
		</g>
	</g>
	<path opacity="0.7" fill="#FFFFFF" d="M211,237.1L211,237.1c-1.6,0-2.9-1.3-2.9-2.9v-28.1c0-1.6,1.3-2.9,2.9-2.9l0,0
		c1.6,0,2.9,1.3,2.9,2.9v28.1C213.9,235.8,212.6,237.1,211,237.1z"/>
	<path opacity="0.7" fill="#FFFFFF" d="M944.9,773.8L944.9,773.8c-1.6,0-2.9-1.3-2.9-2.9V351.8c0-1.6,1.3-2.9,2.9-2.9l0,0
		c1.6,0,2.9,1.3,2.9,2.9v419.1C947.8,772.5,946.5,773.8,944.9,773.8z"/>
	<g>
		<defs>
			<rect id="SVGID_57_" x="275.2" y="182.5" width="1044.5" height="607"/>
		</defs>
		<clipPath id="SVGID_8_">
			<use xlink:href="#SVGID_57_"  overflow="visible"/>
		</clipPath>
		<g transform="matrix(1 0 0 1 -1.907349e-06 0)" clip-path="url(#SVGID_8_)">
			
				<image overflow="visible" width="1920" height="1200" xlink:href="../../../../../../../Desktop/Screen Shot 2014-11-19 at 10.37.21 PM (2).png"  transform="matrix(0.8434 0 0 0.8434 27.9914 -76.3681)">
			</image>
		</g>
	</g>
</g>
<g>
	<g opacity="0.77">
		<defs>
			<rect id="SVGID_59_" x="-1786.1" y="-475" opacity="0.77" width="1361.7" height="942.4"/>
		</defs>
		<clipPath id="SVGID_10_">
			<use xlink:href="#SVGID_59_"  overflow="visible"/>
		</clipPath>
		<g clip-path="url(#SVGID_10_)">
			<g>
				<defs>
					<rect id="SVGID_61_" x="-1886.5" y="-478.8" width="1819.4" height="957.3"/>
				</defs>
				<clipPath id="SVGID_12_">
					<use xlink:href="#SVGID_61_"  overflow="visible"/>
				</clipPath>
				<g transform="matrix(1 0 0 1 0 0)" clip-path="url(#SVGID_12_)">
					
						<image overflow="visible" width="1920" height="1200" xlink:href="../../../../../../../Desktop/Screen Shot 2014-11-19 at 9.36.13 PM (2).png"  transform="matrix(1.1913 0 0 1.3057 -2208.96 -906.5863)">
					</image>
				</g>
			</g>
		</g>
	</g>
</g>
<g>
	<g>
		<defs>
			<rect id="SVGID_73_" x="-143.2" y="-776.7" width="1390.1" height="300.7"/>
		</defs>
		<clipPath id="SVGID_14_">
			<use xlink:href="#SVGID_73_"  overflow="visible"/>
		</clipPath>
		<g clip-path="url(#SVGID_14_)">
			<g>
				<defs>
					<rect id="SVGID_75_" x="898.4" y="-767.2" width="348.5" height="707.1"/>
				</defs>
				<clipPath id="SVGID_16_">
					<use xlink:href="#SVGID_75_"  overflow="visible"/>
				</clipPath>
				<g transform="matrix(1 0 0 1 0 0)" clip-path="url(#SVGID_16_)">
					
						<image overflow="visible" width="1920" height="1200" xlink:href="../../../../../../../Desktop/Screen Shot 2014-11-19 at 10.20.08 PM (2).png"  transform="matrix(0.9362 0 0 0.9362 -429.3517 -1053.3948)">
					</image>
				</g>
			</g>
			<g>
				<defs>
					<rect id="SVGID_77_" x="554.6" y="-767.2" width="348.5" height="707.1"/>
				</defs>
				<clipPath id="SVGID_18_">
					<use xlink:href="#SVGID_77_"  overflow="visible"/>
				</clipPath>
				<g transform="matrix(1 0 0 1 0 0)" clip-path="url(#SVGID_18_)">
					
						<image overflow="visible" width="1920" height="1200" xlink:href="../../../../../../../Desktop/Screen Shot 2014-11-19 at 10.20.08 PM (2).png"  transform="matrix(0.9362 0 0 0.9362 -773.1621 -1053.3948)">
					</image>
				</g>
			</g>
			<g>
				<defs>
					<rect id="SVGID_79_" x="210.7" y="-767.2" width="348.5" height="707.1"/>
				</defs>
				<clipPath id="SVGID_20_">
					<use xlink:href="#SVGID_79_"  overflow="visible"/>
				</clipPath>
				<g transform="matrix(1 0 0 1 0 0)" clip-path="url(#SVGID_20_)">
					
						<image overflow="visible" width="1920" height="1200" xlink:href="../../../../../../../Desktop/Screen Shot 2014-11-19 at 10.20.08 PM (2).png"  transform="matrix(0.9362 0 0 0.9362 -1116.9724 -1053.3948)">
					</image>
				</g>
			</g>
			<g>
				<defs>
					<rect id="SVGID_81_" x="-133.1" y="-767.2" width="348.5" height="707.1"/>
				</defs>
				<clipPath id="SVGID_22_">
					<use xlink:href="#SVGID_81_"  overflow="visible"/>
				</clipPath>
				<g transform="matrix(1 0 0 1 0 0)" clip-path="url(#SVGID_22_)">
					
						<image overflow="visible" width="1920" height="1200" xlink:href="../../../../../../../Desktop/Screen Shot 2014-11-19 at 10.20.08 PM (2).png"  transform="matrix(0.9362 0 0 0.9362 -1460.7827 -1053.3948)">
					</image>
				</g>
			</g>
		</g>
	</g>
</g>
</svg>
