<?xml version="1.0" encoding="utf-8"?>
<!-- Generator: Adobe Illustrator 18.0.0, SVG Export Plug-In . SVG Version: 6.00 Build 0)  -->
<!DOCTYPE svg PUBLIC "-//W3C//DTD SVG 1.1//EN" "http://www.w3.org/Graphics/SVG/1.1/DTD/svg11.dtd">
<svg version="1.1" id="Layer_1" xmlns="http://www.w3.org/2000/svg" xmlns:xlink="http://www.w3.org/1999/xlink" x="0px" y="0px"
	 viewBox="0 0 1599.4 959.5" enable-background="new 0 0 1599.4 959.5" xml:space="preserve">
<g>
	<g opacity="0.77">
		<defs>
			<rect id="SVGID_69_" x="1804.1" y="1271" opacity="0.77" width="1361.7" height="942.4"/>
		</defs>
		<clipPath id="SVGID_2_">
			<use xlink:href="#SVGID_69_"  overflow="visible"/>
		</clipPath>
		<g clip-path="url(#SVGID_2_)">
			<g>
				<defs>
					<rect id="SVGID_71_" x="1703.7" y="1267.3" width="1819.4" height="957.3"/>
				</defs>
				<clipPath id="SVGID_4_">
					<use xlink:href="#SVGID_71_"  overflow="visible"/>
				</clipPath>
				<g transform="matrix(1 0 0 1 0 0)" clip-path="url(#SVGID_4_)">
					
						<image overflow="visible" width="1920" height="1200" xlink:href="../../../../../../../Desktop/Screen Shot 2014-11-19 at 9.36.13 PM (2).png"  transform="matrix(1.1913 0 0 1.3057 1381.1838 839.4613)">
					</image>
				</g>
			</g>
		</g>
	</g>
	<g>
		<defs>
			<rect id="SVGID_83_" x="2741" y="712.1" width="348.5" height="707.1"/>
		</defs>
		<clipPath id="SVGID_6_">
			<use xlink:href="#SVGID_83_"  overflow="visible"/>
		</clipPath>
		<g transform="matrix(1 0 0 1 0 0)" clip-path="url(#SVGID_6_)">
			
				<image overflow="visible" width="1920" height="1200" xlink:href="../../../../../../../Desktop/Screen Shot 2014-11-19 at 10.20.08 PM (2).png"  transform="matrix(0.9362 0 0 0.9362 1413.3163 425.9331)">
			</image>
		</g>
	</g>
	<g>
		<defs>
			<rect id="SVGID_85_" x="2402.1" y="712.1" width="348.5" height="707.1"/>
		</defs>
		<clipPath id="SVGID_8_">
			<use xlink:href="#SVGID_85_"  overflow="visible"/>
		</clipPath>
		<g transform="matrix(1 0 0 1 0 0)" clip-path="url(#SVGID_8_)">
			
				<image overflow="visible" width="1920" height="1200" xlink:href="../../../../../../../Desktop/Screen Shot 2014-11-19 at 10.20.08 PM (2).png"  transform="matrix(0.9362 0 0 0.9362 1074.3759 425.9332)">
			</image>
		</g>
	</g>
	<g>
		<defs>
			<rect id="SVGID_87_" x="2053.6" y="712.1" width="348.5" height="707.1"/>
		</defs>
		<clipPath id="SVGID_10_">
			<use xlink:href="#SVGID_87_"  overflow="visible"/>
		</clipPath>
		<g transform="matrix(1 0 0 1 0 0)" clip-path="url(#SVGID_10_)">
			
				<image overflow="visible" width="1920" height="1200" xlink:href="../../../../../../../Desktop/Screen Shot 2014-11-19 at 10.20.08 PM (2).png"  transform="matrix(0.9362 0 0 0.9362 725.8444 425.9332)">
			</image>
		</g>
	</g>
	<g>
		<defs>
			<rect id="SVGID_89_" x="1705" y="712.1" width="348.5" height="707.1"/>
		</defs>
		<clipPath id="SVGID_12_">
			<use xlink:href="#SVGID_89_"  overflow="visible"/>
		</clipPath>
		<g transform="matrix(1 0 0 1 0 0)" clip-path="url(#SVGID_12_)">
			
				<image overflow="visible" width="1920" height="1200" xlink:href="../../../../../../../Desktop/Screen Shot 2014-11-19 at 10.20.08 PM (2).png"  transform="matrix(0.9362 0 0 0.9362 377.3129 425.9332)">
			</image>
		</g>
	</g>
</g>
<g id="AShzMd_7_" opacity="0.8">
	<g>
		
			<image overflow="visible" width="620" height="372" id="AShzMd_34_" xlink:href="E68AFA197B59C086.png"  transform="matrix(2.5797 0 0 2.5792 0 0)">
		</image>
	</g>
</g>
</svg>
