<?xml version="1.0" encoding="utf-8"?>
<!-- Generator: Adobe Illustrator 18.0.0, SVG Export Plug-In . SVG Version: 6.00 Build 0)  -->
<!DOCTYPE svg PUBLIC "-//W3C//DTD SVG 1.1//EN" "http://www.w3.org/Graphics/SVG/1.1/DTD/svg11.dtd">
<svg version="1.1" id="Layer_1" xmlns="http://www.w3.org/2000/svg" xmlns:xlink="http://www.w3.org/1999/xlink" x="0px" y="0px"
	 viewBox="0 0 62.9 30" enable-background="new 0 0 62.9 30" xml:space="preserve">
<g>
	<g>
		<g>
			<path fill="#FFFFFF" d="M26.1,1H1.5C0.7,1,0,1.7,0,2.6v24.5c0,0.8,0.7,1.5,1.5,1.5h13.2V17.9h-3.6v-4.2h3.6v-3.1
				c0-3.6,2.2-5.5,5.4-5.5c1.5,0,2.8,0.1,3.2,0.2v3.7h-2.2c-1.7,0-2.1,0.8-2.1,2v2.7h4.1l-0.5,4.2H19v10.7h7v0
				c0.8,0,1.5-0.7,1.5-1.5V2.6C27.6,1.7,26.9,1,26.1,1z"/>
			<rect x="14.7" y="28.6" fill="#FFFFFF" width="4.3" height="0"/>
		</g>
	</g>
</g>
<g>
	<g>
		<g id="layer1_23_" transform="translate(-282.32053,-396.30734)">
			<path id="path5_10_" fill="#FFFFFF" d="M343.3,403.9c-1,0.4-2,0.7-3.1,0.9c1.1-0.7,2-1.7,2.4-3c-1,0.6-2.2,1.1-3.5,1.3
				c-1-1.1-2.4-1.7-4-1.7c-3,0-5.4,2.4-5.4,5.4c0,0.4,0,0.8,0.1,1.2c-4.5-0.2-8.5-2.4-11.2-5.7c-0.5,0.8-0.7,1.7-0.7,2.7
				c0,1.9,1,3.5,2.4,4.5c-0.9,0-1.7-0.3-2.5-0.7c0,0,0,0,0,0.1c0,2.6,1.9,4.8,4.4,5.3c-0.5,0.1-0.9,0.2-1.4,0.2c-0.3,0-0.7,0-1-0.1
				c0.7,2.2,2.7,3.7,5.1,3.8c-1.9,1.5-4.2,2.3-6.7,2.3c-0.4,0-0.9,0-1.3-0.1c2.4,1.5,5.3,2.4,8.3,2.4c10,0,15.5-8.3,15.5-15.5
				c0-0.2,0-0.5,0-0.7C341.7,405.9,342.6,405,343.3,403.9L343.3,403.9z"/>
		</g>
	</g>
</g>
</svg>
