<?xml version="1.0" encoding="utf-8"?>
<!-- Generator: Adobe Illustrator 18.0.0, SVG Export Plug-In . SVG Version: 6.00 Build 0)  -->
<!DOCTYPE svg PUBLIC "-//W3C//DTD SVG 1.0//EN" "http://www.w3.org/TR/2001/REC-SVG-20010904/DTD/svg10.dtd">
<svg version="1.0" id="Layer_1" xmlns="http://www.w3.org/2000/svg" xmlns:xlink="http://www.w3.org/1999/xlink" x="0px" y="0px"
	 viewBox="0 0 746.1 606.2" enable-background="new 0 0 746.1 606.2" xml:space="preserve">
<g>
	
		
	<g id="layer1_2_" transform="translate(-282.32053,-396.30734)">
		<path id="path5_1_" fill="#656868" d="M1022.2,471.3c-27,12-56,20.1-86.5,23.7
			c31.1-18.6,55-48.2,66.2-83.3c-29.1,17.3-61.3,29.8-95.7,36.6c-27.5-29.3-66.6-47.6-109.9-47.6c-83.2,0-150.6,67.4-150.6,150.6
			c0,11.8,1.3,23.3,3.9,34.3c-125.2-6.3-236.2-66.3-310.5-157.4c-13,22.2-20.4,48.1-20.4,75.7c0,52.3,26.6,98.4,67,125.4
			c-24.7-0.8-47.9-7.6-68.2-18.8c0,0.6,0,1.3,0,1.9c0,73,51.9,133.9,120.8,147.7c-12.6,3.4-25.9,5.3-39.7,5.3
			c-9.7,0-19.1-0.9-28.3-2.7c19.2,59.8,74.8,103.4,140.7,104.6c-51.6,40.4-116.5,64.5-187.1,64.5c-12.2,0-24.1-0.7-35.9-2.1
			c66.7,42.7,145.8,67.7,230.9,67.7c277.1,0,428.6-229.5,428.6-428.6c0-6.5-0.1-13-0.4-19.5C976.5,528.1,1002,501.5,1022.2,471.3
			L1022.2,471.3z"/>
	</g>
</g>
</svg>
